<svg xmlns="http://www.w3.org/2000/svg" width="29" height="20.304" viewBox="0 0 29 20.304">
  <g id="bank_card" data-name="bank card" transform="translate(-1 -3)">
    <path id="Combined_Shape" data-name="Combined Shape" d="M27.5,20.3H1.5A1.5,1.5,0,0,1,0,18.8V7.251H29V18.8A1.5,1.5,0,0,1,27.5,20.3Zm-6.056-5.8a.5.5,0,0,0-.5.5v1.9a.5.5,0,0,0,.5.5h3.833a.5.5,0,0,0,.5-.5V15a.5.5,0,0,0-.5-.5ZM29,4.352H0V1.5A1.5,1.5,0,0,1,1.5,0h26A1.5,1.5,0,0,1,29,1.5v2.85Z" transform="translate(1 3)" fill="#d1d1d1"/>
  </g>
</svg>
