<svg xmlns="http://www.w3.org/2000/svg" width="27.3" height="27.3" viewBox="0 0 27.3 27.3">
  <g id="Group_58" data-name="Group 58" transform="translate(-74.9 -506.175)">
    <g id="Page-1" transform="translate(74.9 506.175)">
      <g id="mcc_icons" data-name="mcc icons">
        <g id="bank">
          <path id="Combined-Shape" d="M74.9,530.436a.841.841,0,0,1,.817-.79h25.6a.8.8,0,0,1,.817.79v2.248a.84.84,0,0,1-.817.79H75.785a.8.8,0,0,1-.817-.79v-2.248ZM78.3,516.7c0-.425.34-.729.885-.729h1.7a.811.811,0,0,1,.885.729v9.905c0,.425-.34.729-.885.729h-1.7a.811.811,0,0,1-.885-.729Zm8.578,0c0-.425.34-.729.885-.729h1.7a.811.811,0,0,1,.885.729v9.905c0,.425-.34.729-.885.729h-1.7a.811.811,0,0,1-.885-.729Zm8.51,0c0-.425.34-.729.885-.729h1.7a.811.811,0,0,1,.885.729v9.905c0,.425-.34.729-.885.729h-1.7a.811.811,0,0,1-.885-.729ZM74.9,512.875v-.729a1.324,1.324,0,0,1,.749-1.094l12.118-4.74a2.308,2.308,0,0,1,1.566,0l12.118,4.74a1.324,1.324,0,0,1,.749,1.094v.729a.841.841,0,0,1-.817.79h-25.6A.857.857,0,0,1,74.9,512.875Z" transform="translate(-74.9 -506.175)" fill="#d1d1d1"/>
        </g>
      </g>
    </g>
  </g>
</svg>
