<svg xmlns="http://www.w3.org/2000/svg" width="33.077" height="46.249" viewBox="0 0 33.077 46.249">
  <g id="active_logo" data-name="active logo" transform="translate(-105.939 -72.4)">
    <path id="Path_2044" data-name="Path 2044" d="M134.191,82.371l.084-1.505.293-.084a2.906,2.906,0,0,0,0-2.216s-1.673-1.547-22.874-.711c0,0-1.464,0-1.714.711s-.335,2.425.335,2.593l.084,1.213c0,.084-.627.627-.669.753a11.8,11.8,0,0,0-1.505,2.76c-1.924,4.683-2.258,10.036-2.258,15.054a89.429,89.429,0,0,0,.335,10.036,31.84,31.84,0,0,0,.795,4.516c.251.92.5,2.76,1.422,3.3s5.353,2.885,15.6,2.885,12.921-3.178,12.921-3.178.878-3.429,1.087-5.06S141.593,92.491,134.191,82.371Z" transform="translate(0 -3.03)" fill="#dcdcdc" opacity="0.8"/>
    <path id="Path_2045" data-name="Path 2045" d="M119.725,76.93l-.125-3.178a54.87,54.87,0,0,1,21.536,0v3.68S138.5,79.1,130.054,78.9,119.976,77.223,119.725,76.93Z" transform="translate(-7.948 -0.181)" fill="#ccc"/>
    <ellipse id="Ellipse_1" data-name="Ellipse 1" cx="10.789" cy="1.087" rx="10.789" ry="1.087" transform="translate(111.652 72.4)" fill="#ccc"/>
    <path id="Path_2046" data-name="Path 2046" d="M138.008,121.04l-.251.544a5.4,5.4,0,0,1-4.934,3.262,5.67,5.67,0,0,1-5.52-5.938,5.563,5.563,0,0,1,5.52-5.729,5.445,5.445,0,0,1,4.725,2.718l.251.418,2.8-1.673-.251-.418a8.439,8.439,0,0,0-6.105-3.973V107.7h-3.3v2.634A8.585,8.585,0,0,0,124,118.907a8.787,8.787,0,0,0,6.942,8.782v2.634h3.3v-2.551a8.652,8.652,0,0,0,6.231-4.349l.209-.335Z" transform="translate(-10.508 -20.539)" fill="#fff"/>
    <path id="Path_2047" data-name="Path 2047" d="M111.5,172.529c2.258-.544,12.336-2.593,27.683.042.084,0,.125.084.125.167,0,.042-.042.084-.084.125-1.84,1.045-11.123,5.394-27.766-.042-.084-.042-.125-.084-.084-.167A.111.111,0,0,1,111.5,172.529Z" transform="translate(-3.154 -57.518)" fill="#dcdcdc"/>
    <rect id="Rectangle_378" data-name="Rectangle 378" width="11.416" height="0.418" transform="translate(116.962 73.278)" fill="#f2f2f2"/>
  </g>
</svg>
