<svg id="icon" xmlns="http://www.w3.org/2000/svg" width="32" height="32" viewBox="0 0 32 32">
  <path id="Path_2953" data-name="Path 2953" d="M16,0A16,16,0,1,0,32,16,16,16,0,0,0,16,0ZM19.33,24.8q-1.235.488-1.971.742a5.2,5.2,0,0,1-1.709.256,3.407,3.407,0,0,1-2.326-.73,2.356,2.356,0,0,1-.828-1.852,6.726,6.726,0,0,1,.061-.893c.042-.3.108-.645.2-1.028l1.031-3.641c.091-.349.169-.681.232-.99a4.39,4.39,0,0,0,.092-.857,1.32,1.32,0,0,0-.287-.971,1.631,1.631,0,0,0-1.1-.272,2.89,2.89,0,0,0-.819.122c-.278.085-.519.163-.717.238l.272-1.122q1.012-.412,1.937-.706a5.722,5.722,0,0,1,1.747-.3,3.343,3.343,0,0,1,2.292.718,2.385,2.385,0,0,1,.8,1.864q0,.238-.056.836a5.592,5.592,0,0,1-.206,1.1l-1.025,3.63c-.084.291-.158.624-.226,1a5.271,5.271,0,0,0-.1.848,1.218,1.218,0,0,0,.324.986,1.812,1.812,0,0,0,1.12.263,3.249,3.249,0,0,0,.848-.131,4.821,4.821,0,0,0,.685-.23Zm-.182-14.734a2.447,2.447,0,0,1-1.727.666,2.473,2.473,0,0,1-1.734-.666,2.127,2.127,0,0,1-.722-1.616,2.149,2.149,0,0,1,.722-1.62,2.455,2.455,0,0,1,1.734-.673,2.427,2.427,0,0,1,1.727.673,2.182,2.182,0,0,1,0,3.236Z" fill="#d1d1d1"/>
</svg>
