<svg id="round-lock-24px" xmlns="http://www.w3.org/2000/svg" width="32" height="32" viewBox="0 0 32 32">
  <g id="Group_1" data-name="Group 1">
    <path id="Path_2950" data-name="Path 2950" d="M0,0H32V32H0Z" fill="none"/>
    <path id="Path_2951" data-name="Path 2951" d="M0,0H32V32H0Z" fill="none" opacity="0.87"/>
  </g>
  <path id="Path_2952" data-name="Path 2952" d="M25,10.667H23.5V7.9C23.5,4.093,20.14,1,16,1S8.5,4.093,8.5,7.9v2.762H7a2.9,2.9,0,0,0-3,2.762v13.81A2.9,2.9,0,0,0,7,30H25a2.9,2.9,0,0,0,3-2.762V13.429A2.9,2.9,0,0,0,25,10.667ZM16,23.1a2.9,2.9,0,0,1-3-2.762,2.9,2.9,0,0,1,3-2.762,2.9,2.9,0,0,1,3,2.762A2.9,2.9,0,0,1,16,23.1ZM11.5,10.667V7.9A4.327,4.327,0,0,1,16,3.762,4.327,4.327,0,0,1,20.5,7.9v2.762Z" fill="#d1d1d1"/>
</svg>
