<svg xmlns="http://www.w3.org/2000/svg" xmlns:xlink="http://www.w3.org/1999/xlink" width="34.891" height="34" viewBox="0 0 34.891 34">
  <defs>
    <clipPath id="clip-path">
      <rect width="34.891" height="34" fill="none"/>
    </clipPath>
  </defs>
  <g id="Component_869_2" data-name="Component 869 – 2" clip-path="url(#clip-path)">
    <rect id="Box" width="24" height="24" fill="none"/>
    <path id="Path_2039" data-name="Path 2039" d="M1077.925,32h-.177a13.11,13.11,0,0,1-6.535-3.36,11.114,11.114,0,0,1-3.885-8.32c0-2.56,2.473-4.64,5.475-4.64s5.475,2.08,5.475,4.64c0,1.76,1.59,3.04,3.709,3.04,1.943,0,3.709-1.44,3.709-3.04,0-6.08-5.652-10.88-12.716-10.88-4.946,0-9.538,2.56-11.657,6.4a9.418,9.418,0,0,0-1.06,4.48,14.7,14.7,0,0,0,1.236,5.76q.265.72-.53.96a.755.755,0,0,1-1.06-.48,15.951,15.951,0,0,1-1.236-6.4,9.693,9.693,0,0,1,1.236-5.12c2.3-4.48,7.595-7.36,13.246-7.36,7.948,0,14.483,5.6,14.483,12.48,0,2.56-2.473,4.64-5.475,4.64s-5.475-2.08-5.475-4.64c0-1.76-1.59-3.04-3.709-3.04s-3.709,1.44-3.709,3.04a9.733,9.733,0,0,0,3.356,7.2,12.218,12.218,0,0,0,5.829,2.88,1,1,0,0,1,.707.96C1078.631,31.68,1078.278,32,1077.925,32Zm3.532-3.36a10.236,10.236,0,0,1-5.475-1.44,8.228,8.228,0,0,1-4.239-7.04.887.887,0,0,1,1.766,0,7.039,7.039,0,0,0,3.356,5.76,7.786,7.786,0,0,0,4.415,1.12,8.053,8.053,0,0,0,1.766-.16c.53-.16.883.16,1.06.64s-.177.8-.707.96A9.543,9.543,0,0,1,1081.457,28.64Zm-12.54,3.04a.733.733,0,0,1-.707-.32,17.221,17.221,0,0,1-3.532-4.16,12.638,12.638,0,0,1-1.766-6.88c0-4.8,4.416-8.64,10.067-8.64s10.067,3.84,10.067,8.64a.887.887,0,0,1-1.766,0c0-3.84-3.709-7.04-8.3-7.04s-8.3,3.2-8.3,7.04a11.294,11.294,0,0,0,1.59,6.08,12.731,12.731,0,0,0,3.356,3.84.724.724,0,0,1,0,1.12C1069.27,31.52,1069.094,31.68,1068.917,31.68ZM1057.79,12.32a.694.694,0,0,1-.53-.16c-.353-.32-.53-.8-.177-1.12a17.5,17.5,0,0,1,6.712-5.28,22.505,22.505,0,0,1,18.192,0,20.484,20.484,0,0,1,6.712,5.12c.353.32.177.8-.177,1.12a.934.934,0,0,1-1.236-.16,15.012,15.012,0,0,0-6.005-4.64,20.041,20.041,0,0,0-16.6,0,15.383,15.383,0,0,0-6.005,4.8A1.028,1.028,0,0,1,1057.79,12.32ZM1083.046,4c-.177,0-.353,0-.353-.16a21.728,21.728,0,0,0-9.89-2.24,22.811,22.811,0,0,0-9.891,2.24,1.252,1.252,0,0,1-1.236-.32,1,1,0,0,1,.353-1.12,24.324,24.324,0,0,1,10.6-2.4,24.9,24.9,0,0,1,10.6,2.4.872.872,0,0,1,.353,1.12C1083.753,3.84,1083.4,4,1083.046,4Z" transform="translate(-1054 2)" fill="#d1d1d1"/>
  </g>
</svg>
