<svg id="Group_757" data-name="Group 757" xmlns="http://www.w3.org/2000/svg" width="132.863" height="66.649" viewBox="0 0 132.863 66.649">
  <g id="Group_40" data-name="Group 40">
    <g id="Group_38" data-name="Group 38">
      <g id="Asset_1" data-name="Asset 1">
        <g id="Layer_1" data-name="Layer 1">
          <path id="_Path_" data-name="&lt;Path&gt;" d="M42.158,4.7H12.85A9.248,9.248,0,0,1,4.6,12.95V42.909a9.248,9.248,0,0,1,8.25,8.25H42.158A29.894,29.894,0,0,1,31.086,27.929,30.242,30.242,0,0,1,42.158,4.7Z" transform="translate(5.386 5.504)" fill="#fff"/>
          <path id="_Path_2" data-name="&lt;Path&gt;" d="M39.2,51.159H68.508a9.248,9.248,0,0,1,8.25-8.25V12.95a9.248,9.248,0,0,1-8.25-8.25H39.2A29.894,29.894,0,0,1,50.272,27.929,29.568,29.568,0,0,1,39.2,51.159Z" transform="translate(45.902 5.504)" fill="#fff"/>
          <path id="_Path_3" data-name="&lt;Path&gt;" d="M35.425,21.091a2.67,2.67,0,0,0-1.085-2.171A13.026,13.026,0,0,0,31.3,17.4v6.513C34.122,23.913,35.425,23.045,35.425,21.091Z" transform="translate(36.651 20.375)" fill="#d1d1d3"/>
          <path id="_Path_4" data-name="&lt;Path&gt;" d="M28.5,12.939a2.779,2.779,0,0,0,.868,2.171,11.615,11.615,0,0,0,2.822,1.3V9.9C29.8,10.117,28.5,11.2,28.5,12.939Z" transform="translate(33.37 11.593)" fill="#d1d1d1"/>
          <path id="_Compound_Path_" data-name="&lt;Compound Path&gt;" d="M30.6,0V8.25h2.388v5.427A20.451,20.451,0,0,1,39.5,15.2a58.138,58.138,0,0,1,5.21,2.605L40.8,24.966c0-.217-.434-.434-.868-.651s-1.085-.651-1.954-1.085-1.737-.651-2.605-1.085a7.663,7.663,0,0,0-3.039-.651v7.164l1.737.434a33.76,33.76,0,0,1,4.993,1.737A15.045,15.045,0,0,1,42.757,33a9.075,9.075,0,0,1,2.388,3.256,10.073,10.073,0,0,1,.868,4.559,13.026,13.026,0,0,1-1.086,5.21A9.053,9.053,0,0,1,42.106,49.5a12.092,12.092,0,0,1-4.125,1.954,34.128,34.128,0,0,1-4.993.868V58.4H30.6v8.25H97.032V0ZM49.27,10.2H78.578a9.248,9.248,0,0,0,8.25,8.25V48.413a9.248,9.248,0,0,0-8.25,8.25H49.27A29.894,29.894,0,0,0,60.342,33.433,30.242,30.242,0,0,0,49.27,10.2Z" transform="translate(35.832)" fill="#d1d1d0"/>
          <path id="_Compound_Path_2" data-name="&lt;Compound Path&gt;" d="M66.432,58.4h-1.3V52.1a29.786,29.786,0,0,1-7.381-1.52,29.938,29.938,0,0,1-6.513-3.039l3.908-7.6a5.949,5.949,0,0,0,1.085.868,23.684,23.684,0,0,0,2.388,1.3,25.269,25.269,0,0,0,3.256,1.3,35.366,35.366,0,0,0,3.908.868V37.124l-2.605-.651a22.209,22.209,0,0,1-4.559-1.737,12.157,12.157,0,0,1-3.256-2.171,8.271,8.271,0,0,1-1.954-2.822,10.139,10.139,0,0,1-.651-3.691,12.071,12.071,0,0,1,.868-4.993,11.354,11.354,0,0,1,2.605-3.691,11.81,11.81,0,0,1,3.908-2.388,17.042,17.042,0,0,1,4.776-1.085V8.467h1.3V0H0V66.649H66.432ZM47.544,56.662H18.236a9.248,9.248,0,0,0-8.25-8.25V18.453a9.248,9.248,0,0,0,8.25-8.25H47.544A29.894,29.894,0,0,0,36.472,33.433,29.569,29.569,0,0,0,47.544,56.662Z" fill="#d1d1d1"/>
          <path id="_Compound_Path_3" data-name="&lt;Compound Path&gt;" d="M37.377,9.345A30.806,30.806,0,0,0,32.6,10.43a11.81,11.81,0,0,0-3.908,2.388,11.354,11.354,0,0,0-2.605,3.691A12.071,12.071,0,0,0,25.22,21.5a9.357,9.357,0,0,0,.651,3.691,8.272,8.272,0,0,0,1.954,2.822,12.157,12.157,0,0,0,3.256,2.171,22.208,22.208,0,0,0,4.559,1.737l2.605.651v7.164a35.365,35.365,0,0,1-3.908-.868,25.269,25.269,0,0,1-3.256-1.3,23.685,23.685,0,0,1-2.388-1.3c-.651-.434-1.085-.651-1.085-.868l-3.908,7.6a22.4,22.4,0,0,0,6.513,3.039,27.9,27.9,0,0,0,7.381,1.52v6.3h3.691V47.771a18.5,18.5,0,0,0,4.993-.868A14.394,14.394,0,0,0,50.4,44.948a11.05,11.05,0,0,0,2.822-3.474,13.026,13.026,0,0,0,1.085-5.21,10.073,10.073,0,0,0-.868-4.559,9.075,9.075,0,0,0-2.388-3.256,15.045,15.045,0,0,0-3.691-2.171c-1.52-.651-3.039-1.085-4.993-1.737l-1.737-.434V16.943c1.085.217,2.171.434,3.039.651a15.762,15.762,0,0,1,2.605,1.085,7.815,7.815,0,0,1,1.954,1.085,4.06,4.06,0,0,1,.868.651l3.908-7.164a58.136,58.136,0,0,0-5.21-2.605,20.451,20.451,0,0,0-6.513-1.52V3.7H37.377ZM40.2,33.659a9.943,9.943,0,0,1,3.039,1.52,2.67,2.67,0,0,1,1.085,2.171c0,1.737-1.3,2.822-4.125,2.822Zm-2.171-9.986a11.615,11.615,0,0,1-2.822-1.3,2.518,2.518,0,0,1-.868-2.171c0-1.954,1.3-2.822,3.691-3.039v6.513Z" transform="translate(27.752 4.333)" fill="#fff"/>
        </g>
      </g>
    </g>
  </g>
</svg>
