<svg id="Group_960" data-name="Group 960" xmlns="http://www.w3.org/2000/svg" width="129.336" height="31.187" viewBox="0 0 129.336 31.187">
  <path id="Path_5589" data-name="Path 5589" d="M91.249,86.988c-2.656,0-3.9-2.232-3.9-5.148,0-2.887,1.244-5.182,3.837-5.182,1.673,0,2.752.983,3.475,2.588l4.131-2.2a7.721,7.721,0,0,0-6.363-4.309v-2.3H88.617v2.453c-4.43.921-6.777,4.478-6.777,9,0,4.492,2.386,7.944,6.777,8.845v2.463H92.43V90.9a7.883,7.883,0,0,0,6.493-4.377l-4-2.164A3.892,3.892,0,0,1,91.249,86.988Z" transform="translate(-81.84 -65.441)" fill="#fff"/>
  <path id="Path_5590" data-name="Path 5590" d="M128.2,75.04c-3.933,0-6.3,1.345-7.606,4.1l4.068,2.034a3.21,3.21,0,0,1,3.249-2.2c1.769,0,2.786.983,2.786,2.458v1.051a27.739,27.739,0,0,0-7.312.887,4.555,4.555,0,0,0-3.379,4.623c0,3.114,2.227,5.379,5.707,5.379a5.716,5.716,0,0,0,5.148-2.786h.067l.13,2.425h5.018V81.3C136.076,77.436,133.487,75.04,128.2,75.04ZM130.7,86.449a2.953,2.953,0,0,1-3.051,3.148c-1.509,0-2.294-.853-2.294-1.9,0-1.277,1.017-1.673,2.068-1.837s2.261-.26,3.278-.328Z" transform="translate(-101.611 -67.824)" fill="#fff"/>
  <path id="Path_5591" data-name="Path 5591" d="M168.536,82.025c-2.887-.559-4.063-.819-4.063-1.9,0-.723.752-1.311,2.328-1.311a11.007,11.007,0,0,1,5.741,1.8l2.131-3.442a14.173,14.173,0,0,0-7.838-2.131c-5.346,0-7.708,2.622-7.708,5.673,0,3.475,2.887,4.786,6.261,5.442,2.887.559,4.362.819,4.362,1.967,0,1.051-1.181,1.475-2.921,1.475a10.829,10.829,0,0,1-6.1-2l-2.362,3.475a14.925,14.925,0,0,0,8.4,2.294c5.278,0,8.3-2.4,8.3-6C175.062,83.663,171.785,82.68,168.536,82.025Z" transform="translate(-121.481 -67.824)" fill="#fff"/>
  <path id="Path_5592" data-name="Path 5592" d="M209.614,67.286a5.837,5.837,0,0,0-5.114,2.656h-.067V60.07H198.99V85.256h5.442V74.536a3,3,0,0,1,3.181-3.181,2.366,2.366,0,0,1,2.56,2.526V85.261h5.442v-12.1C215.615,69.614,213.224,67.286,209.614,67.286Z" transform="translate(-142.521 -60.07)" fill="#fff"/>
  <path id="Path_5593" data-name="Path 5593" d="M252.4,75.04a6.67,6.67,0,0,0-5.442,2.887h-.067l-.13-2.526H241.71v23.61h5.442v-8.1h.067a6.33,6.33,0,0,0,5.114,2.458c4.589,0,7.51-4.035,7.51-9.216C259.849,78.944,257.091,75.04,252.4,75.04Zm-1.769,14.3c-2.425,0-3.673-2.068-3.673-5.052,0-2.95,1.215-5.215,3.707-5.215s3.673,2.328,3.673,5.148C254.339,87.139,253.124,89.337,250.632,89.337Z" transform="translate(-164.649 -67.824)" fill="#fff"/>
  <path id="Path_5594" data-name="Path 5594" d="M293.215,75.04c-6.035,0-9.245,3.967-9.245,9.216,0,5.215,3.215,9.115,9.245,9.115s9.25-3.967,9.25-9.183C302.46,78.944,299.245,75.04,293.215,75.04Zm-.034,14.331c-2.492,0-3.707-2.232-3.707-5.148,0-2.95,1.21-5.182,3.769-5.182,2.492,0,3.707,2.232,3.707,5.182C296.951,87.139,295.741,89.371,293.181,89.371Z" transform="translate(-186.539 -67.824)" fill="#fff"/>
  <path id="Path_5595" data-name="Path 5595" d="M336.874,73.5V69.8h-3.837V64.22h-5.379V69.8H324.51V73.5h3.148v8.951c0,3.408,1.836,5.312,5.967,5.312a14.806,14.806,0,0,0,3.249-.362V83.7a7.49,7.49,0,0,1-1.248.1c-2.063,0-2.589-.887-2.589-2.4V73.494h3.837Z" transform="translate(-207.537 -62.22)" fill="#fff"/>
</svg>
