<svg id="round-assignment-24px" xmlns="http://www.w3.org/2000/svg" width="35" height="35" viewBox="0 0 35 35">
  <path id="Path_2984" data-name="Path 2984" d="M0,0H35V35H0Z" fill="none"/>
  <path id="Path_2985" data-name="Path 2985" d="M28.778,4.1H22.043a4.879,4.879,0,0,0-9.087,0H6.222A3.172,3.172,0,0,0,3,7.2V28.9A3.172,3.172,0,0,0,6.222,32H28.778A3.172,3.172,0,0,0,32,28.9V7.2A3.172,3.172,0,0,0,28.778,4.1ZM17.5,4.1a1.586,1.586,0,0,1,1.611,1.55,1.612,1.612,0,0,1-3.222,0A1.586,1.586,0,0,1,17.5,4.1Zm1.611,21.7H11.056a1.551,1.551,0,1,1,0-3.1h8.056a1.551,1.551,0,1,1,0,3.1Zm4.833-6.2H11.056a1.551,1.551,0,1,1,0-3.1H23.944a1.551,1.551,0,1,1,0,3.1Zm0-6.2H11.056a1.551,1.551,0,1,1,0-3.1H23.944a1.551,1.551,0,1,1,0,3.1Z" transform="translate(0)" fill="#d1d1d1"/>
</svg>
