<svg id="round-notifications-24px" xmlns="http://www.w3.org/2000/svg" width="35" height="35" viewBox="0 0 35 35">
  <path id="Path_2948" data-name="Path 2948" d="M0,0H35V35H0Z" fill="none"/>
  <path id="Path_2949" data-name="Path 2949" d="M16.652,32.135A3.146,3.146,0,0,0,19.878,29.1H13.425A3.136,3.136,0,0,0,16.652,32.135Zm9.679-9.118v-7.6c0-4.666-2.646-8.571-7.259-9.6V4.78a2.424,2.424,0,0,0-4.839,0V5.813c-4.63,1.033-7.259,4.924-7.259,9.6v7.6l-2.081,1.96a1.51,1.51,0,0,0,1.129,2.6H27.266a1.515,1.515,0,0,0,1.145-2.6Z" transform="translate(0.849 0.481)" fill="#d1d1d1"/>
</svg>
