<svg id="calendar" xmlns="http://www.w3.org/2000/svg" width="36.068" height="36.068" viewBox="0 0 36.068 36.068">
  <g id="Group_2" data-name="Group 2">
    <g id="Group_1" data-name="Group 1">
      <path id="Path_2048" data-name="Path 2048" d="M31.841,2.818H30.15V0H27.332V2.818H8.735V0H5.917V2.818H4.227A4.231,4.231,0,0,0,0,7.044v24.8a4.231,4.231,0,0,0,4.227,4.227H31.841a4.231,4.231,0,0,0,4.227-4.227V7.044A4.231,4.231,0,0,0,31.841,2.818ZM33.25,31.841a1.41,1.41,0,0,1-1.409,1.409H4.227a1.41,1.41,0,0,1-1.409-1.409v-18.6H33.25Zm0-21.415H2.818V7.044A1.41,1.41,0,0,1,4.227,5.636H5.917V8.453H8.735V5.636h18.6V8.453H30.15V5.636h1.691A1.41,1.41,0,0,1,33.25,7.044Z" fill="#d1d1d1"/>
    </g>
  </g>
  <g id="Group_4" data-name="Group 4" transform="translate(5.354 16.202)">
    <g id="Group_3" data-name="Group 3">
      <rect id="Rectangle_379" data-name="Rectangle 379" width="2.818" height="2.818" fill="#d1d1d1"/>
    </g>
  </g>
  <g id="Group_6" data-name="Group 6" transform="translate(10.989 16.202)">
    <g id="Group_5" data-name="Group 5">
      <rect id="Rectangle_380" data-name="Rectangle 380" width="2.818" height="2.818" fill="#d1d1d1"/>
    </g>
  </g>
  <g id="Group_8" data-name="Group 8" transform="translate(16.625 16.202)">
    <g id="Group_7" data-name="Group 7">
      <rect id="Rectangle_381" data-name="Rectangle 381" width="2.818" height="2.818" fill="#d1d1d1"/>
    </g>
  </g>
  <g id="Group_10" data-name="Group 10" transform="translate(22.26 16.202)">
    <g id="Group_9" data-name="Group 9">
      <rect id="Rectangle_382" data-name="Rectangle 382" width="2.818" height="2.818" fill="#d1d1d1"/>
    </g>
  </g>
  <g id="Group_12" data-name="Group 12" transform="translate(27.896 16.202)">
    <g id="Group_11" data-name="Group 11">
      <rect id="Rectangle_383" data-name="Rectangle 383" width="2.818" height="2.818" fill="#d1d1d1"/>
    </g>
  </g>
  <g id="Group_14" data-name="Group 14" transform="translate(5.354 21.838)">
    <g id="Group_13" data-name="Group 13">
      <rect id="Rectangle_384" data-name="Rectangle 384" width="2.818" height="2.818" fill="#d1d1d1"/>
    </g>
  </g>
  <g id="Group_16" data-name="Group 16" transform="translate(10.989 21.838)">
    <g id="Group_15" data-name="Group 15">
      <rect id="Rectangle_385" data-name="Rectangle 385" width="2.818" height="2.818" fill="#d1d1d1"/>
    </g>
  </g>
  <g id="Group_18" data-name="Group 18" transform="translate(16.625 21.838)">
    <g id="Group_17" data-name="Group 17">
      <rect id="Rectangle_386" data-name="Rectangle 386" width="2.818" height="2.818" fill="#d1d1d1"/>
    </g>
  </g>
  <g id="Group_20" data-name="Group 20" transform="translate(22.26 21.838)">
    <g id="Group_19" data-name="Group 19">
      <rect id="Rectangle_387" data-name="Rectangle 387" width="2.818" height="2.818" fill="#d1d1d1"/>
    </g>
  </g>
  <g id="Group_22" data-name="Group 22" transform="translate(5.354 27.473)">
    <g id="Group_21" data-name="Group 21">
      <rect id="Rectangle_388" data-name="Rectangle 388" width="2.818" height="2.818" fill="#d1d1d1"/>
    </g>
  </g>
  <g id="Group_24" data-name="Group 24" transform="translate(10.989 27.473)">
    <g id="Group_23" data-name="Group 23">
      <rect id="Rectangle_389" data-name="Rectangle 389" width="2.818" height="2.818" fill="#d1d1d1"/>
    </g>
  </g>
  <g id="Group_26" data-name="Group 26" transform="translate(16.625 27.473)">
    <g id="Group_25" data-name="Group 25">
      <rect id="Rectangle_390" data-name="Rectangle 390" width="2.818" height="2.818" fill="#d1d1d1"/>
    </g>
  </g>
  <g id="Group_28" data-name="Group 28" transform="translate(22.26 27.473)">
    <g id="Group_27" data-name="Group 27">
      <rect id="Rectangle_391" data-name="Rectangle 391" width="2.818" height="2.818" fill="#d1d1d1"/>
    </g>
  </g>
  <g id="Group_30" data-name="Group 30" transform="translate(27.896 21.838)">
    <g id="Group_29" data-name="Group 29">
      <rect id="Rectangle_392" data-name="Rectangle 392" width="2.818" height="2.818" fill="#d1d1d1"/>
    </g>
  </g>
</svg>
