<svg id="Layer_1" data-name="Layer 1" xmlns="http://www.w3.org/2000/svg" width="88.612" height="88.612" viewBox="0 0 88.612 88.612">
  <g id="Page-1">
    <g id="mcc_icons" data-name="mcc icons">
      <g id="request">
        <path id="Combined-Shape" d="M50.026,44.691v9.86c0,1.434,1,1.793,2.193.9L72.756,41.106a1.7,1.7,0,0,0,0-3.048L52.22,23.717c-1.2-.9-2.193-.359-2.193.9v9.86H14a2.9,2.9,0,0,0-1.992.719,2.332,2.332,0,0,0-.8,1.791V42a2.332,2.332,0,0,0,.8,1.791A2.9,2.9,0,0,0,14,44.512H50.086ZM34.873,78.753l-15.951,9.5c-1.2.717-2.193.359-2.193-1.076V71.044C.055,59.149-4.855,38.274,5.037,21.328S36.825-3.844,57.185,1.737,90.614,25.128,88.308,44.154C86.064,62.064,70.816,76.433,51.023,79.29a53.838,53.838,0,0,1-16.15-.538Z" transform="translate(0.041 -0.001)" fill="#d1d1d1"/>
      </g>
    </g>
  </g>
</svg>
