<svg xmlns="http://www.w3.org/2000/svg" width="24" height="24" viewBox="0 0 24 24">
  <path id="chat" d="M12,1.5C5.383,1.5,0,6.6,0,12.868a10.886,10.886,0,0,0,1.907,6.149c-.236,2.752-.87,4.8-1.79,5.764a.438.438,0,0,0-.075.485A.4.4,0,0,0,.4,25.5a.357.357,0,0,0,.056,0A20.59,20.59,0,0,0,7.1,23.248a12.452,12.452,0,0,0,4.9.989c6.617,0,12-5.1,12-11.368S18.617,1.5,12,1.5ZM6.4,14.553a1.686,1.686,0,0,1,0-3.368,1.686,1.686,0,0,1,0,3.368Zm5.6,0a1.686,1.686,0,1,1,1.6-1.684A1.645,1.645,0,0,1,12,14.553Zm5.6,0a1.686,1.686,0,1,1,1.6-1.684A1.645,1.645,0,0,1,17.6,14.553Z" transform="translate(0 -1.5)" fill="#cecece"/>
</svg>
