<svg xmlns="http://www.w3.org/2000/svg" width="69.26" height="94.07" viewBox="0 0 69.26 94.07">
  <path id="Clogo-01" d="M104.01,89.814,91.293,82.321c-4.036,6.644-9.79,10.345-17.774,10.345-14.435,0-20.8-11.387-20.8-24.666,0-13.381,6.462-24.666,20.5-24.666,7.974,0,13.63,3.7,17.666,10.723l12.815-7.871C98.265,37.916,90.164,32.6,79.49,31.032V21.01H64.563V31.179C45.316,34.4,34.75,49.331,34.75,68.193c0,19,10.615,33.488,29.813,36.635V115.08H79.49V104.994A34.193,34.193,0,0,0,104.01,89.814Z" transform="translate(-34.75 -21.01)" fill="#0a5c2f"/>
</svg>
