<svg xmlns="http://www.w3.org/2000/svg" width="21.736" height="31.416" viewBox="0 0 21.736 31.416">
  <path id="Clogo-01" d="M56.486,43.988l-3.991-2.5a6.128,6.128,0,0,1-5.578,3.455c-4.53,0-6.527-3.8-6.527-8.238,0-4.469,2.028-8.238,6.435-8.238a5.991,5.991,0,0,1,5.544,3.581l4.022-2.629a10.541,10.541,0,0,0-7.6-5.06V21.01H44.106v3.4c-6.04,1.076-9.356,6.062-9.356,12.361,0,6.346,3.331,11.184,9.356,12.235v3.424h4.684V49.058A10.676,10.676,0,0,0,56.486,43.988Z" transform="translate(-34.75 -21.01)" fill="#0a5c2f"/>
</svg>
