<svg id="Layer_2" data-name="Layer 2" xmlns="http://www.w3.org/2000/svg" width="27.461" height="35.481" viewBox="0 0 27.461 35.481">
  <g id="Layer_1" data-name="Layer 1" transform="translate(1 1)">
    <g id="Global-Element-_-Bottom-Bar-Icons-_-Delete" data-name="Global-Element-/-Bottom-Bar-Icons-/-Delete">
      <path id="Global-Elements-_-Bottom-Bar-Icons-_-Delete" data-name="Global-Elements-/-Bottom-Bar-Icons-/-Delete" d="M19.712,3.673A2.673,2.673,0,0,0,17.039,1H10.356A2.673,2.673,0,0,0,7.683,3.673V5.01H1V6.346H2.537l1.2,26.13s.4,2,2,2H21.783c1.6,0,2-2,2-2l1.136-26.13h1.537V5.01H19.779V3.673Zm-10.692,0a1.437,1.437,0,0,1,1.537-1.337h6.282a1.437,1.437,0,0,1,1.537,1.337V5.01H9.019Zm12.7,29.471H5.678a1.838,1.838,0,0,1-.668-1.337c-.134-1-1.2-25.461-1.2-25.461H23.454s-.936,24.392-1.069,25.461A1.611,1.611,0,0,1,21.717,33.144ZM19.043,9.019H17.707l-.668,21.452h1.337ZM10.356,30.471,9.688,9.019H8.351l.668,21.452ZM13.029,9.019h1.337V30.471H13.029Z" transform="translate(-1 -1)" fill="#d1d1d1" stroke="#d1d1d1" stroke-miterlimit="10" stroke-width="2"/>
    </g>
  </g>
</svg>
