<svg id="Layer_2" data-name="Layer 2" xmlns="http://www.w3.org/2000/svg" width="81.109" height="106.026" viewBox="0 0 81.109 106.026">
  <g id="Layer_1" data-name="Layer 1" transform="translate(1 1)">
    <g id="Global-Element-_-Bottom-Bar-Icons-_-Delete" data-name="Global-Element-/-Bottom-Bar-Icons-/-Delete">
      <path id="Global-Elements-_-Bottom-Bar-Icons-_-Delete" data-name="Global-Elements-/-Bottom-Bar-Icons-/-Delete" d="M59.138,9.305A8.305,8.305,0,0,0,50.833,1H30.069a8.305,8.305,0,0,0-8.305,8.305v4.153H1v4.153H5.776L9.513,98.8s1.246,6.229,6.229,6.229H65.575c4.983,0,6.229-6.229,6.229-6.229l3.53-81.186h4.776V13.458H59.346V9.305Zm-33.222,0a4.464,4.464,0,0,1,4.776-4.153H50.21a4.464,4.464,0,0,1,4.776,4.153v4.153H25.916Zm39.451,91.567H15.535a5.71,5.71,0,0,1-2.076-4.153c-.415-3.115-3.737-79.109-3.737-79.109H70.766S67.859,93.4,67.444,96.72A5,5,0,0,1,65.367,100.873ZM57.062,25.916H52.909L50.833,92.567h4.153ZM30.069,92.567,27.993,25.916H23.84l2.076,66.651Zm8.305-66.651h4.153V92.567H38.374Z" transform="translate(-1 -1)" fill="#d1d1d1" stroke="#d1d1d1" stroke-miterlimit="10" stroke-width="2"/>
    </g>
  </g>
</svg>
