<svg id="logout" xmlns="http://www.w3.org/2000/svg" width="28.5" height="28.5" viewBox="0 0 28.5 28.5">
  <g id="Group_50" data-name="Group 50">
    <g id="Group_49" data-name="Group 49">
      <path id="Path_2946" data-name="Path 2946" d="M18.406,21.375H17.219a.594.594,0,0,0-.594.594v4.156H2.375V2.375h14.25V6.531a.594.594,0,0,0,.594.594h1.187A.594.594,0,0,0,19,6.531V2.375A2.375,2.375,0,0,0,16.625,0H2.375A2.375,2.375,0,0,0,0,2.375v23.75A2.375,2.375,0,0,0,2.375,28.5h14.25A2.375,2.375,0,0,0,19,26.125V21.969A.594.594,0,0,0,18.406,21.375Z" fill="#d1d1d1"/>
      <path id="Path_2947" data-name="Path 2947" d="M149.183,134.681l-7.125-6.531a.594.594,0,0,0-.995.438v1.188a.593.593,0,0,0,.2.441l4.128,3.715H128.594a.593.593,0,0,0-.594.594v1.187a.593.593,0,0,0,.594.594h16.793l-4.128,3.715a.593.593,0,0,0-.2.441v1.188a.593.593,0,0,0,.355.543.585.585,0,0,0,.239.05.6.6,0,0,0,.4-.156l7.125-6.531a.594.594,0,0,0,0-.876Z" transform="translate(-120.875 -120.869)" fill="#d1d1d1"/>
    </g>
  </g>
</svg>
