<svg xmlns="http://www.w3.org/2000/svg" width="83.622" height="62.716" viewBox="0 0 83.622 62.716">
  <g id="exchange-arrows" transform="translate(0 -63.954)">
    <g id="Group_938" data-name="Group 938" transform="translate(0 63.954)">
      <path id="Path_3495" data-name="Path 3495" d="M1.493,86.353H65.7v8.96a1.518,1.518,0,0,0,2.566,1.074L83.2,81.453a1.583,1.583,0,0,0,0-2.146L68.317,64.421a1.754,1.754,0,0,0-1.121-.467A1.436,1.436,0,0,0,65.7,65.447v8.96H1.493a1.434,1.434,0,0,0-1.05.443A1.435,1.435,0,0,0,0,75.9v8.96a1.434,1.434,0,0,0,.443,1.05A1.435,1.435,0,0,0,1.493,86.353Z" transform="translate(0 -63.954)" fill="#707070"/>
      <path id="Path_3496" data-name="Path 3496" d="M82.129,257.135H17.919v-8.96a1.514,1.514,0,0,0-1.493-1.493,1.453,1.453,0,0,0-1.073.42L.42,262.033A1.458,1.458,0,0,0,0,263.108a1.393,1.393,0,0,0,.42,1.026l14.886,14.933a1.755,1.755,0,0,0,1.12.466,1.512,1.512,0,0,0,1.493-1.493V269.08h64.21a1.512,1.512,0,0,0,1.493-1.493v-8.959a1.512,1.512,0,0,0-1.493-1.492Z" transform="translate(0 -216.816)" fill="#707070"/>
    </g>
  </g>
</svg>
