<svg id="Group_56" data-name="Group 56" xmlns="http://www.w3.org/2000/svg" width="33" height="27.784" viewBox="0 0 33 27.784">
  <path id="Path_2950" data-name="Path 2950" d="M81.932,424.032a6.012,6.012,0,0,1,2.8,4.448,4.993,4.993,0,0,0,2.032.439,4.832,4.832,0,0,0,0-9.664A4.864,4.864,0,0,0,81.932,424.032Zm-3.13,9.883a4.832,4.832,0,1,0-4.832-4.832A4.8,4.8,0,0,0,78.8,433.915Zm2.141.384H76.825a6.234,6.234,0,0,0-6.2,6.2v5l.329.11a29.173,29.173,0,0,0,8.4,1.373,16.9,16.9,0,0,0,7.358-1.373l.329-.165h.055v-5A6.1,6.1,0,0,0,80.943,434.3Zm7.8-4.942H84.458a6.011,6.011,0,0,1-1.867,4.118,7.282,7.282,0,0,1,5.381,6.973v1.537a16.976,16.976,0,0,0,6.644-1.373l.329-.165H95v-4.942A6.27,6.27,0,0,0,88.74,429.358Zm-18.449-.439a4.74,4.74,0,0,0,2.581-.769,5.928,5.928,0,0,1,2.251-3.844v-.275a4.832,4.832,0,1,0-4.832,4.887Zm4.448,4.557a6.01,6.01,0,0,1-1.867-4.118H68.2a6.234,6.234,0,0,0-6.2,6.2v5.052l.329.11a28.823,28.823,0,0,0,7.028,1.318V440.5A7.532,7.532,0,0,1,74.739,433.476Z" transform="translate(-62 -419.2)" fill="#d1d1d1"/>
</svg>
