<svg id="Group_1046" data-name="Group 1046" xmlns="http://www.w3.org/2000/svg" xmlns:xlink="http://www.w3.org/1999/xlink" width="318.901" height="76.856" viewBox="0 0 318.901 76.856">
  <defs>
    <clipPath id="clip-path">
      <rect id="Rectangle_781" data-name="Rectangle 781" width="318.901" height="76.856"/>
    </clipPath>
  </defs>
  <g id="Group_1039" data-name="Group 1039" clip-path="url(#clip-path)">
    <path id="Path_14838" data-name="Path 14838" d="M41.106,76.662c-6.532,0-9.592-5.473-9.592-12.711,0-7.121,3.06-12.77,9.475-12.77,4.119,0,6.768,2.413,8.592,6.415l10.181-5.414c-2.884-5.767-8-9.71-15.713-10.652V35.88H34.633v6.061C23.687,44.237,17.92,53,17.92,64.127c0,11.064,5.885,19.6,16.713,21.833v6.061h9.416V86.313c7.945-.942,13.182-5.061,16.007-10.769l-9.887-5.355c-1.765,4-4.708,6.473-9.063,6.473" transform="translate(-17.92 -23.581)" fill="#fff"/>
  </g>
  <g id="Group_1040" data-name="Group 1040" clip-path="url(#clip-path)">
    <path id="Path_14839" data-name="Path 14839" d="M51.994,64.94c0,4.473-2.884,7.768-7.533,7.768-3.707,0-5.649-2.119-5.649-4.708,0-3.178,2.531-4.119,5.12-4.531s5.591-.647,8.062-.824v2.3ZM45.815,36.81c-9.71,0-15.536,3.3-18.773,10.122l10,5a7.905,7.905,0,0,1,8-5.414c4.355,0,6.885,2.413,6.885,6.061v2.589c-7.062.235-13.476.647-18.008,2.177-6,2-8.3,6.3-8.3,11.417,0,7.709,5.473,13.241,14.065,13.241,5.649,0,10.122-2.531,12.711-6.885h.177l.353,6H65.294V52.287c-.059-9.592-6.473-15.477-19.479-15.477" transform="translate(19.742 -19.038)" fill="#fff"/>
  </g>
  <g id="Group_1041" data-name="Group 1041" clip-path="url(#clip-path)">
    <path id="Path_14840" data-name="Path 14840" d="M58.44,54c-7.121-1.354-10-2-10-4.708,0-1.765,1.883-3.237,5.767-3.237a26.712,26.712,0,0,1,14.124,4.473l5.238-8.474a34.942,34.942,0,0,0-19.3-5.238c-13.182,0-19.008,6.473-19.008,14.006,0,8.592,7.121,11.829,15.418,13.417,7.121,1.354,10.769,2,10.769,4.826,0,2.589-2.884,3.649-7.18,3.649A26.754,26.754,0,0,1,39.2,67.774L33.37,76.366c5.179,3.3,11.652,5.649,20.715,5.649,13.006,0,20.479-5.885,20.479-14.771,0-9.239-8.121-11.652-16.125-13.241" transform="translate(57.551 -18.989)" fill="#fff"/>
  </g>
  <g id="Group_1042" data-name="Group 1042" clip-path="url(#clip-path)">
    <path id="Path_14841" data-name="Path 14841" d="M67.768,51.562c-5.473,0-10,2.413-12.594,6.532H55V33.79H41.58V95.875H55V69.452c0-4.531,2.884-7.827,7.827-7.827,4.178,0,6.3,2.766,6.3,6.238V95.934H82.539V66.1c0-8.768-5.885-14.536-14.771-14.536" transform="translate(97.656 -33.79)" fill="#fff"/>
  </g>
  <g id="Group_1043" data-name="Group 1043" clip-path="url(#clip-path)">
    <path id="Path_14842" data-name="Path 14842" d="M72.209,72.06c-6,0-9.063-5.12-9.063-12.476,0-7.3,3-12.829,9.122-12.829s9.063,5.767,9.063,12.711c0,7.18-2.942,12.594-9.122,12.594m4.355-35.25a16.4,16.4,0,0,0-13.418,7.121H62.97l-.294-6.238H50.2v58.2H63.617V75.944h.177a15.645,15.645,0,0,0,12.594,6.061c11.3,0,18.537-9.945,18.537-22.716,0-12.829-6.768-22.48-18.361-22.48" transform="translate(139.764 -19.038)" fill="#fff"/>
  </g>
  <g id="Group_1044" data-name="Group 1044" clip-path="url(#clip-path)">
    <path id="Path_14843" data-name="Path 14843" d="M81.456,72.119c-6.12,0-9.122-5.473-9.122-12.711,0-7.3,3-12.77,9.3-12.77,6.12,0,9.122,5.473,9.122,12.77,0,7.238-3,12.711-9.3,12.711m.059-35.309c-14.889,0-22.774,9.769-22.774,22.716,0,12.829,7.945,22.48,22.774,22.48s22.774-9.769,22.774-22.657S96.4,36.81,81.514,36.81" transform="translate(181.481 -19.038)" fill="#fff"/>
  </g>
  <g id="Group_1045" data-name="Group 1045" clip-path="url(#clip-path)">
    <path id="Path_14844" data-name="Path 14844" d="M97.355,57.512V48.391H87.939V34.62H74.7V48.391H66.93v9.122H74.7V79.58C74.7,88,79.229,92.7,89.41,92.7a37.234,37.234,0,0,0,8-.883V82.7a17.423,17.423,0,0,1-3.06.235c-5.12,0-6.414-2.177-6.414-5.885V57.571h9.416Z" transform="translate(221.488 -29.736)" fill="#fff"/>
  </g>
</svg>
