<svg id="Group_39" data-name="Group 39" xmlns="http://www.w3.org/2000/svg" width="35.531" height="17.824" viewBox="0 0 35.531 17.824">
  <g id="Group_40" data-name="Group 40">
    <g id="Group_38" data-name="Group 38">
      <g id="Asset_1" data-name="Asset 1">
        <g id="Layer_1" data-name="Layer 1">
          <path id="_Path_" data-name="&lt;Path&gt;" d="M14.644,4.7H6.806A2.473,2.473,0,0,1,4.6,6.906v8.012a2.473,2.473,0,0,1,2.206,2.206h7.838a8,8,0,0,1-2.961-6.212A8.087,8.087,0,0,1,14.644,4.7Z" transform="translate(-1.929 -1.971)" fill="#fff"/>
          <path id="_Path_2" data-name="&lt;Path&gt;" d="M39.2,17.124h7.838a2.473,2.473,0,0,1,2.206-2.206V6.906A2.473,2.473,0,0,1,47.038,4.7H39.2a8,8,0,0,1,2.961,6.212A7.907,7.907,0,0,1,39.2,17.124Z" transform="translate(-16.441 -1.971)" fill="#fff"/>
          <path id="_Path_3" data-name="&lt;Path&gt;" d="M32.4,18.387a.714.714,0,0,0-.29-.581A3.483,3.483,0,0,0,31.3,17.4v1.742C32.055,19.142,32.4,18.91,32.4,18.387Z" transform="translate(-13.128 -7.298)" fill="#d1d1d3"/>
          <path id="_Path_4" data-name="&lt;Path&gt;" d="M28.5,10.713a.743.743,0,0,0,.232.581,3.106,3.106,0,0,0,.755.348V9.9C28.848,9.958,28.5,10.248,28.5,10.713Z" transform="translate(-11.953 -4.152)" fill="#d1d1d1"/>
          <path id="_Compound_Path_" data-name="&lt;Compound Path&gt;" d="M30.6,0V2.206h.639V3.658a5.469,5.469,0,0,1,1.742.406,15.548,15.548,0,0,1,1.393.7L33.329,6.677c0-.058-.116-.116-.232-.174s-.29-.174-.523-.29-.464-.174-.7-.29a2.049,2.049,0,0,0-.813-.174V7.664l.464.116a9.028,9.028,0,0,1,1.335.464,4.023,4.023,0,0,1,.987.581,2.427,2.427,0,0,1,.639.871,2.694,2.694,0,0,1,.232,1.219,3.483,3.483,0,0,1-.29,1.393,2.421,2.421,0,0,1-.755.929,3.234,3.234,0,0,1-1.1.523,9.127,9.127,0,0,1-1.335.232v1.626H30.6v2.206H48.366V0Zm4.993,2.729h7.838a2.473,2.473,0,0,0,2.206,2.206v8.012a2.473,2.473,0,0,0-2.206,2.206H35.593a8,8,0,0,0,2.961-6.212,8.087,8.087,0,0,0-2.961-6.212Z" transform="translate(-12.834)" fill="#d1d1d0"/>
          <path id="_Compound_Path_2" data-name="&lt;Compound Path&gt;" d="M17.766,15.618h-.348V13.934a7.966,7.966,0,0,1-1.974-.406,8.006,8.006,0,0,1-1.742-.813l1.045-2.032a1.591,1.591,0,0,0,.29.232,6.334,6.334,0,0,0,.639.348,6.758,6.758,0,0,0,.871.348,9.457,9.457,0,0,0,1.045.232V9.928l-.7-.174a5.939,5.939,0,0,1-1.219-.464,3.251,3.251,0,0,1-.871-.581,2.212,2.212,0,0,1-.523-.755,2.711,2.711,0,0,1-.174-.987,3.228,3.228,0,0,1,.232-1.335,3.036,3.036,0,0,1,.7-.987,3.158,3.158,0,0,1,1.045-.639,4.558,4.558,0,0,1,1.277-.29V2.264h.348V0H0V17.824H17.766Zm-5.051-.464H4.877a2.473,2.473,0,0,0-2.206-2.206V4.935A2.473,2.473,0,0,0,4.877,2.729h7.838A8,8,0,0,0,9.754,8.941a7.907,7.907,0,0,0,2.961,6.212Z" fill="#d1d1d1"/>
          <path id="_Compound_Path_3" data-name="&lt;Compound Path&gt;" d="M27.358,5.21a8.238,8.238,0,0,0-1.277.29,3.158,3.158,0,0,0-1.045.639,3.036,3.036,0,0,0-.7.987,3.228,3.228,0,0,0-.232,1.335,2.5,2.5,0,0,0,.174.987,2.212,2.212,0,0,0,.523.755,3.251,3.251,0,0,0,.871.581,5.939,5.939,0,0,0,1.219.464l.7.174v1.916a9.458,9.458,0,0,1-1.045-.232,6.758,6.758,0,0,1-.871-.348,6.334,6.334,0,0,1-.639-.348c-.174-.116-.29-.174-.29-.232L23.7,14.208a5.992,5.992,0,0,0,1.742.813,7.46,7.46,0,0,0,1.974.406v1.684H28.4V15.486a4.947,4.947,0,0,0,1.335-.232,3.849,3.849,0,0,0,1.1-.523A2.955,2.955,0,0,0,31.6,13.8a3.483,3.483,0,0,0,.29-1.393,2.694,2.694,0,0,0-.232-1.219,2.427,2.427,0,0,0-.639-.871,4.023,4.023,0,0,0-.987-.581c-.406-.174-.813-.29-1.335-.464l-.464-.116V7.242c.29.058.581.116.813.174a4.215,4.215,0,0,1,.7.29,2.09,2.09,0,0,1,.523.29,1.086,1.086,0,0,1,.232.174l1.045-1.916a15.547,15.547,0,0,0-1.393-.7A5.469,5.469,0,0,0,28.4,5.151V3.7H27.358Zm.755,6.5a2.659,2.659,0,0,1,.813.406.714.714,0,0,1,.29.581c0,.464-.348.755-1.1.755Zm-.581-2.671a3.106,3.106,0,0,1-.755-.348.673.673,0,0,1-.232-.581c0-.523.348-.755.987-.813V9.041Z" transform="translate(-9.94 -1.552)" fill="#fff"/>
        </g>
      </g>
    </g>
  </g>
</svg>
