<svg xmlns="http://www.w3.org/2000/svg" width="24" height="24" viewBox="0 0 24 24">
  <g id="Layer_2" data-name="Layer 2" transform="translate(0.041 0)">
    <g id="Layer_1" data-name="Layer 1" transform="translate(-0.041 0.001)">
      <g id="Page-1">
        <g id="mcc_icons" data-name="mcc icons">
          <g id="request">
            <path id="Combined-Shape" d="M13.52,12.1v2.67c0,.388.27.486.594.243l5.562-3.884a.461.461,0,0,0,0-.825L14.114,6.424c-.324-.243-.594-.1-.594.243v2.67H3.761a.785.785,0,0,0-.54.195.632.632,0,0,0-.217.485v1.36a.632.632,0,0,0,.217.485.785.785,0,0,0,.54.195h9.774Zm-4.1,9.225L5.1,23.9c-.324.194-.594.1-.594-.291v-4.37A10.087,10.087,0,0,1,1.334,5.777C4.014,1.187,9.944-1.041,15.459.471s9.054,6.335,8.429,11.488c-.608,4.851-4.738,8.743-10.1,9.517a14.582,14.582,0,0,1-4.374-.146Z" transform="translate(0.041 -0.001)" fill="#d1d1d1"/>
          </g>
        </g>
      </g>
    </g>
  </g>
</svg>
