<svg id="money" xmlns="http://www.w3.org/2000/svg" width="24" height="24" viewBox="0 0 24 24">
  <path id="Path_34118" data-name="Path 34118" d="M2.557,88.178a2.031,2.031,0,0,1,1.5-.661c.061,0,.124,0,.185.008l.22.02a8.356,8.356,0,0,1-.532-7.819l.362.362a.676.676,0,0,0,1.151-.417l.36-3.958a.676.676,0,0,0-.734-.734l-3.958.36A.676.676,0,0,0,.69,76.49l.862.862a11.5,11.5,0,0,0,.48,12.319,2.032,2.032,0,0,1,.526-1.493Z" transform="translate(0 -71.597)" fill="#d1d1d1"/>
  <path id="Path_34119" data-name="Path 34119" d="M89.5,387.028a2.028,2.028,0,0,1-2.018-2.212l.017-.192a8.352,8.352,0,0,1-7.771.5l.362-.362a.676.676,0,0,0-.417-1.151l-3.958-.36a.676.676,0,0,0-.734.734l.36,3.958a.676.676,0,0,0,1.151.417l.862-.862a11.5,11.5,0,0,0,12.323-.483c-.058.005-.118.008-.176.008Z" transform="translate(-71.597 -365.055)" fill="#d1d1d1"/>
  <path id="Path_34120" data-name="Path 34120" d="M386.531,123.305a11.447,11.447,0,0,0,1.568-5.811,11.564,11.564,0,0,0-1.3-5.334,11.438,11.438,0,0,0-.727-1.2,2.027,2.027,0,0,1-2.022,2.154h0c-.061,0-.124,0-.185-.008l-.22-.02a8.355,8.355,0,0,1,.518,7.85l-.393-.393a.676.676,0,0,0-1.151.417l-.36,3.958a.676.676,0,0,0,.734.734l3.958-.36a.676.676,0,0,0,.417-1.151Z" transform="translate(-364.099 -105.032)" fill="#d1d1d1"/>
  <path id="Path_34121" data-name="Path 34121" d="M125.656,5.065l-.36-3.958A.676.676,0,0,0,124.145.69l-.862.862a11.5,11.5,0,0,0-12.319.48c.042,0,.085,0,.127,0a2.028,2.028,0,0,1,2.018,2.212l-.02.22a8.356,8.356,0,0,1,7.819-.532l-.362.362a.676.676,0,0,0,.417,1.151l3.958.36A.676.676,0,0,0,125.656,5.065Z" transform="translate(-105.038 0)" fill="#d1d1d1"/>
  <path id="Path_34122" data-name="Path 34122" d="M196.317,126.819a1.58,1.58,0,1,1,1.465-1.576.678.678,0,1,0,1.352,0,3,3,0,0,0-2.141-2.942v-.574a.678.678,0,1,0-1.352,0v.574a3,3,0,0,0-2.141,2.942,2.933,2.933,0,0,0,2.817,3.031,1.58,1.58,0,1,1-1.465,1.576.678.678,0,1,0-1.352,0,3,3,0,0,0,2.141,2.942v.574a.678.678,0,1,0,1.352,0v-.574a3,3,0,0,0,2.141-2.942A2.933,2.933,0,0,0,196.317,126.819Z" transform="translate(-184.317 -115.547)" fill="#d1d1d1"/>
</svg>
