<svg id="money" xmlns="http://www.w3.org/2000/svg" width="88" height="88" viewBox="0 0 88 88">
  <path id="Path_34118" data-name="Path 34118" d="M9.164,122.283a7.279,7.279,0,0,1,5.362-2.368c.22,0,.443.01.663.03l.788.072A29.942,29.942,0,0,1,14.07,92l1.3,1.3A2.422,2.422,0,0,0,19.492,91.8l1.29-14.184a2.423,2.423,0,0,0-2.632-2.632L3.966,76.276A2.422,2.422,0,0,0,2.472,80.4l3.089,3.088A41.2,41.2,0,0,0,7.28,127.633a7.282,7.282,0,0,1,1.884-5.35Z" transform="translate(0 -62.868)" fill="#d1d1d1"/>
  <path id="Path_34119" data-name="Path 34119" d="M127.016,396.781a7.268,7.268,0,0,1-7.232-7.926l.063-.687A29.928,29.928,0,0,1,92,389.974l1.3-1.3a2.422,2.422,0,0,0-1.494-4.125l-14.184-1.289a2.422,2.422,0,0,0-2.632,2.632l1.29,14.184a2.422,2.422,0,0,0,4.125,1.493l3.089-3.088a41.191,41.191,0,0,0,44.158-1.731c-.209.018-.422.028-.631.028Z" transform="translate(-62.868 -316.044)" fill="#d1d1d1"/>
  <path id="Path_34120" data-name="Path 34120" d="M397.585,155.2a41.017,41.017,0,0,0,5.62-20.822,41.435,41.435,0,0,0-4.675-19.112,40.971,40.971,0,0,0-2.605-4.311,7.263,7.263,0,0,1-7.246,7.717h0c-.22,0-.443-.01-.663-.03l-.788-.072a29.939,29.939,0,0,1,1.857,28.129l-1.408-1.408a2.422,2.422,0,0,0-4.125,1.494l-1.29,14.184a2.422,2.422,0,0,0,2.632,2.632l14.184-1.29a2.422,2.422,0,0,0,1.494-4.125Z" transform="translate(-315.205 -87.722)" fill="#d1d1d1"/>
  <path id="Path_34121" data-name="Path 34121" d="M163.609,18.149,162.32,3.966a2.422,2.422,0,0,0-4.125-1.493l-3.089,3.089a41.2,41.2,0,0,0-44.142,1.718c.151-.009.3-.016.454-.016a7.267,7.267,0,0,1,7.232,7.925l-.072.788A29.942,29.942,0,0,1,146.6,14.07l-1.3,1.3a2.422,2.422,0,0,0,1.494,4.125l14.184,1.29A2.422,2.422,0,0,0,163.609,18.149Z" transform="translate(-87.728 0)" fill="#d1d1d1"/>
  <path id="Path_34122" data-name="Path 34122" d="M203.593,142.742c-2.894,0-5.248-2.641-5.248-5.888s2.354-5.889,5.248-5.889,5.249,2.642,5.249,5.889a2.438,2.438,0,1,0,4.845,0c0-5.307-3.272-9.771-7.671-10.992v-2.144a2.438,2.438,0,1,0-4.845,0v2.144c-4.4,1.221-7.671,5.685-7.671,10.992,0,6.244,4.528,11.324,10.093,11.324,2.894,0,5.249,2.642,5.249,5.889s-2.354,5.888-5.249,5.888-5.248-2.642-5.248-5.888a2.438,2.438,0,1,0-4.845,0c0,5.307,3.272,9.771,7.671,10.992V167.2a2.438,2.438,0,1,0,4.845,0v-2.144c4.4-1.221,7.671-5.685,7.671-10.992C213.686,147.822,209.159,142.742,203.593,142.742Z" transform="translate(-159.593 -101.46)" fill="#d1d1d1"/>
</svg>
