<svg xmlns="http://www.w3.org/2000/svg" xmlns:xlink="http://www.w3.org/1999/xlink" width="36.482" height="36.889" viewBox="0 0 36.482 36.889">
  <defs>
    <clipPath id="clip-path">
      <path id="Path_2050" data-name="Path 2050" d="M99.621,73.1v1.978a6.376,6.376,0,0,0-5.151,6.356,6.511,6.511,0,0,0,5.151,6.523V89.93h2.453v-1.9a6.366,6.366,0,0,0,4.635-3.233l.146-.264-1.963-1.519-.183.405a4.028,4.028,0,0,1-3.684,2.442,4.23,4.23,0,0,1-4.111-4.424,4.144,4.144,0,0,1,4.111-4.262,4,4,0,0,1,3.512,2.031l.178.31,2.071-1.238-.186-.3a6.392,6.392,0,0,0-4.526-2.962V73.1Z" transform="translate(-94.47 -73.1)" fill="none"/>
    </clipPath>
  </defs>
  <g id="Group_34" data-name="Group 34" transform="translate(-176 -309)">
    <g id="noun_Tag_150244" transform="translate(176 309)">
      <g id="Group_32" data-name="Group 32" transform="translate(0 0)">
        <g id="Group_31" data-name="Group 31" transform="translate(0 0)">
          <path id="Path_2049" data-name="Path 2049" d="M3.453,3.8a1.187,1.187,0,0,0,0,1.682l5.2,4.949a1.177,1.177,0,0,0,1.674,0,1.194,1.194,0,0,0,0-1.682L5.127,3.8A1.177,1.177,0,0,0,3.453,3.8Zm2.773,19.81c.9.774,15.622,15.274,16.514,16.02a2.139,2.139,0,0,0,3.178,0C26.93,38.561,38.138,27.475,38.966,26.6s.8-1.629.081-2.294S23.55,7.783,22.655,6.745,20.843,5.4,19.1,5.553c-1.407.122-7.608-.012-10.6.012l2.992,2.821a2.254,2.254,0,0,1-.259,2.947c-.742.742-2.262,1.074-3,.328L4.965,8.305C4.941,10.442,4.949,18.48,4.949,19.6,4.949,20.823,4.519,22.153,6.226,23.607Z" transform="translate(-3.103 -3.448)" fill="#d1d1d1" fill-rule="evenodd"/>
        </g>
      </g>
    </g>
    <g id="C_logo_white" data-name="C logo_white" transform="translate(187.749 318.959)" clip-path="url(#clip-path)">
      <rect id="Rectangle_393" data-name="Rectangle 393" width="12.387" height="16.83" transform="translate(0 0)" fill="#fff"/>
    </g>
  </g>
</svg>
