<svg xmlns="http://www.w3.org/2000/svg" width="171.905" height="229.391" viewBox="0 0 171.905 229.391">
  <g id="AllCashPots-05" transform="translate(0)">
    <path id="Path_13518" data-name="Path 13518" d="M198.315,127.275c0,54.023,0,95.547-50.838,106.687a114.929,114.929,0,0,1-13.618,2.124l-1.211.13h-.8a184.422,184.422,0,0,1-19.243.633c-87.331-1.267-87.089-45.38-85.972-109.63C27.36,86.236,40.716,64.776,51.6,47.246c1.509-2.422-1.528-16.356,0-18.517C65.921,8.573,87.288,10.846,112.474,10.846a111.773,111.773,0,0,1,21.74,1.993,78.464,78.464,0,0,1,10.078,2.645c1.621.54,3.223,1.136,4.788,1.77l2.459,1.08c6.986,3.2,11.531,3.167,17.25,8.96,4.285,4.34,2.031,19.951,2.031,19.951S198.315,90.912,198.315,127.275Z" transform="translate(-26.41 -7.492)" fill="#f3f3f3"/>
    <path id="Path_13519" data-name="Path 13519" d="M102.833,108.4c-35.693,0-64.623,6.855-64.623,15.331s28.93,23.9,64.623,23.9,64.642-15.443,64.642-23.9S138.544,108.4,102.833,108.4Z" transform="translate(-16.228 76.751)" fill="#d1d0d1"/>
    <path id="Path_13520" data-name="Path 13520" d="M120.921,25.68c-.242.186-.6.522-1.025.82l-.745.54-.913.577c-.671.41-1.434.857-2.291,1.285l-1.36.671-1.49.633c-1.043.447-2.142.838-3.3,1.248a75.388,75.388,0,0,1-7.451,2.086A130.121,130.121,0,0,1,88.135,36c-1.956.242-3.6.391-4.732.484l-1.863.149H83.4c1.155,0,2.794-.168,4.75-.335A135.782,135.782,0,0,0,102.5,34.323a72.556,72.556,0,0,0,7.451-1.863c1.192-.354,2.329-.727,3.39-1.136l1.565-.615c.484-.2.969-.41,1.416-.633.913-.41,1.732-.857,2.44-1.248l.987-.6.838-.559c.5-.335.82-.633,1.08-.82a7.041,7.041,0,0,0,.745-.838V23.91S121.145,25.475,120.921,25.68Z" transform="translate(21.16 3.847)" fill="#bab8bc"/>
    <path id="Path_13521" data-name="Path 13521" d="M120.921,28.04c-.242.186-.6.522-1.025.838l-.745.522-.913.6c-.671.41-1.434.857-2.291,1.285l-1.36.652-1.49.652q-1.565.652-3.3,1.229a74.52,74.52,0,0,1-7.451,2.105,134.788,134.788,0,0,1-14.214,2.459c-1.956.224-3.6.391-4.732.484l-1.863.149H83.4c1.155,0,2.794-.149,4.75-.317A131.533,131.533,0,0,0,102.5,36.7a68.026,68.026,0,0,0,7.451-1.863c1.192-.373,2.329-.745,3.39-1.155q.82-.279,1.565-.615l1.416-.615c.913-.428,1.732-.857,2.44-1.267l.987-.577.838-.559c.5-.335.82-.633,1.08-.82a6.837,6.837,0,0,0,.745-.857V26.27S121.145,27.853,120.921,28.04Z" transform="translate(21.16 5.883)" fill="#bab8bc"/>
    <path id="Path_13522" data-name="Path 13522" d="M42.617,27.013c.242.168.6.484,1.062.764l.745.522.931.54c.689.391,1.472.8,2.347,1.192.447.224.913.41,1.4.615l1.509.6c1.043.391,2.161.745,3.335,1.1A72.651,72.651,0,0,0,61.395,34.2a132.841,132.841,0,0,0,14.288,1.863c1.975.149,3.614.242,4.75.3h0c-1.136,0-2.794,0-4.75-.149a132.436,132.436,0,0,1-14.4-1.434,77.144,77.144,0,0,1-7.6-1.565c-1.211-.317-2.366-.652-3.446-1.006-.54-.186-1.062-.354-1.565-.559s-.987-.373-1.453-.577c-.931-.373-1.751-.782-2.478-1.155l-1.025-.559-.838-.522c-.522-.317-.857-.6-1.118-.764a8.829,8.829,0,0,1-.782-.82L40.81,25.15S42.375,26.733,42.617,27.013Z" transform="translate(-13.985 4.917)" fill="#bab8bc"/>
    <path id="Path_13523" data-name="Path 13523" d="M140.486,46.033s2.254-15.611-2.031-19.951c-5.719-5.794-10.246-5.756-17.25-8.96l-2.515-1.08c-1.565-.633-3.167-1.229-4.788-1.863a78.466,78.466,0,0,0-10.078-2.645,111.548,111.548,0,0,0-21.684-1.9H61.892c-1.732,0-3.465.112-5.142.224a101.077,101.077,0,0,1,13.413,1.732,79.544,79.544,0,0,1,10.1,2.645A46.739,46.739,0,0,1,85.028,16.1l2.459,1.08c7,3.2,11.531,3.167,17.25,8.96,4.285,4.34,2.031,19.951,2.031,19.951s27.44,43.554,27.44,79.917c0,54.023,0,95.547-50.838,106.687a114.3,114.3,0,0,1-13.618,2.124l-1.192.13h-.577c1.863.149,3.856.279,5.849.373h.484l2.832.112h5.179a185.011,185.011,0,0,0,19.262-.633h.8l1.192-.13a114.3,114.3,0,0,0,13.618-2.124c50.931-11.177,50.838-52.682,50.838-106.687C167.982,89.643,140.486,46.033,140.486,46.033Z" transform="translate(-0.231 -8.478)" fill="#a9a8a8" opacity="0.2"/>
    <ellipse id="Ellipse_476" data-name="Ellipse 476" cx="58.438" cy="12.891" rx="58.438" ry="12.891" transform="translate(26.825 11.568)" fill="#c4c4c4"/>
    <path id="Path_13524" data-name="Path 13524" d="M99.647,10.16c-33.066,0-59.277,13.711-59.277,20.995S66.581,44.809,99.647,44.809s58.979-5.477,58.979-12.761S132.713,10.16,99.647,10.16Z" transform="translate(-14.365 -8.018)" fill="#c4c4c4"/>
    <path id="Path_13525" data-name="Path 13525" d="M41.53,26.777c0,6.762,25.6,12.239,56.818,12.239s56.836-5.477,56.836-12.239V15.6H41.549Z" transform="translate(-13.364 -3.324)" fill="#8d5725"/>
    <ellipse id="Ellipse_477" data-name="Ellipse 477" cx="56.687" cy="12.239" rx="56.687" ry="12.239" transform="translate(28.427 0)" fill="#b47a2b"/>
    <path id="Path_13526" data-name="Path 13526" d="M94.448,11.23c-31.669,0-47.988,6.054-47.988,8.644s16.319,8.662,47.988,8.662,48.025-6.073,48.025-8.662S126.1,11.23,94.448,11.23Z" transform="translate(-9.11 -7.094)" fill="#b47a2b"/>
    <path id="Path_13527" data-name="Path 13527" d="M65.6,15.688a2.068,2.068,0,1,0,0,4.1H95.141a2.161,2.161,0,0,0,2.291-2.049,2.2,2.2,0,0,0-2.291-2.086Z" transform="translate(5.379 -3.282)" fill="#8d5725"/>
    <path id="Path_13528" data-name="Path 13528" d="M95.15,15.659H65.605a2.086,2.086,0,1,0,0,4.136A2.235,2.235,0,0,1,67.9,17.652H92.878a2.2,2.2,0,0,1,2.273,2.105,2.068,2.068,0,1,0,0-4.1Z" transform="translate(5.37 -3.289)" fill="#a56928"/>
    <path id="Path_13529" data-name="Path 13529" d="M94.448,11.23c-31.669,0-47.988,6.054-47.988,8.644a1.509,1.509,0,0,0,.671,1.025c3.335-2.869,19.318-7.619,47.317-7.619s43.964,4.75,47.317,7.619a1.583,1.583,0,0,0,.671-1.025C142.472,17.284,126.1,11.23,94.448,11.23Z" transform="translate(-9.11 -7.094)" fill="#8d5725"/>
    <path id="Path_13530" data-name="Path 13530" d="M83.74,36.729V25.552s26.08-2.31,33.42-8.4V28.327S111.571,34.847,83.74,36.729Z" transform="translate(23.058 -1.986)" fill="#3c2415" opacity="0.2"/>
    <path id="Path_13531" data-name="Path 13531" d="M115.423,121.241,104.246,114.2c-3.577,6.241-8.662,9.724-15.741,9.724-12.779,0-18.405-10.712-18.405-23.23s5.719-23.23,18.144-23.23c7.06,0,12.071,3.484,15.648,10.1l11.345-7.451A29.806,29.806,0,0,0,93.8,65.839V56.45H80.457v9.575c-17.045,3.036-26.4,17.083-26.4,34.854s9.314,31.538,26.4,34.5v9.65H93.665v-9.5A30.1,30.1,0,0,0,115.423,121.241Z" transform="translate(-2.552 31.925)" fill="#0a5c2f"/>
    <path id="Path_13532" data-name="Path 13532" d="M43.794,51.5a129.394,129.394,0,0,0-5.589,16.878,101.564,101.564,0,0,0-2.44,38.282c.224,2.142.5,4.266.782,6.39.186,1.453,1.4,5.048.876,6.352,5.831-14.679,10.153-29.9,15.723-44.709S63.559,48.05,73.916,36.072c-6.017.112-7.079-.428-15.853-2.254a4.75,4.75,0,0,0-2.85.428A6.893,6.893,0,0,0,52.792,36.3a58.252,58.252,0,0,0-9,15.2Z" transform="translate(-19.037 12.344)" fill="#fff" opacity="0.36"/>
  </g>
</svg>
