<svg xmlns="http://www.w3.org/2000/svg" width="19.572" height="26.127" viewBox="0 0 19.572 26.127">
  <g id="Group_1112" data-name="Group 1112" transform="translate(-251 -389)">
    <path id="Path_1" data-name="Path 1" d="M47.473,25.484c0,6.149.011,10.882-5.789,12.15a14.02,14.02,0,0,1-1.551.242L40,37.889l-.091.008c-.67.057-1.4.083-2.191.072-9.944-.144-9.917-5.167-9.789-12.483a15.852,15.852,0,0,1,2.842-9.106c.172-.276-.174-1.862,0-2.108,1.629-2.293,4.064-2.034,6.932-2.034a12.734,12.734,0,0,1,2.475.225,9.69,9.69,0,0,1,1.148.3c.185.062.365.129.545.2q.14.057.28.121c.8.365,1.313.361,1.964,1.02.488.494.231,2.27.231,2.27S47.473,21.342,47.473,25.484Z" transform="translate(223.1 377.155)" fill="#dcdcdc"/>
    <path id="Path_2" data-name="Path 2" d="M47.041,109.8c-4.064,0-7.361.783-7.361,1.746s3.294,2.724,7.361,2.724,7.361-1.758,7.361-2.724S51.1,109.8,47.041,109.8Z" transform="translate(213.819 300.281)" fill="#dcdcdc" opacity="0.6"/>
    <path id="Path_3" data-name="Path 3" d="M87.557,25.474c-.028.021-.066.059-.117.093-.025.019-.053.038-.083.062s-.068.042-.1.068c-.076.047-.163.1-.261.146-.049.025-.1.051-.155.074s-.11.051-.17.074c-.117.049-.244.1-.375.14-.263.089-.549.17-.84.238a14.816,14.816,0,0,1-1.618.28c-.223.028-.409.045-.539.055l-.206.017.206-.011c.132-.006.318-.019.541-.038a15.46,15.46,0,0,0,1.633-.225,8.431,8.431,0,0,0,.857-.212c.136-.04.265-.085.386-.129.062-.023.121-.045.176-.07s.11-.047.163-.072c.1-.047.2-.1.278-.142.04-.023.078-.047.112-.068l.093-.064a1.351,1.351,0,0,0,.123-.093.779.779,0,0,0,.085-.1l.011-.24S87.585,25.451,87.557,25.474Z" transform="translate(179.617 366.888)" fill="#bab8bc"/>
    <path id="Path_4" data-name="Path 4" d="M87.557,27.834c-.028.021-.066.059-.117.093-.025.019-.053.038-.083.062s-.068.042-.1.068c-.076.047-.163.1-.261.146-.049.025-.1.051-.155.074s-.11.051-.17.074c-.117.049-.244.1-.375.14-.263.089-.549.17-.84.238a14.818,14.818,0,0,1-1.618.28c-.223.028-.409.045-.539.055l-.206.017.206-.011c.132-.006.318-.019.541-.038a15.459,15.459,0,0,0,1.633-.225,8.43,8.43,0,0,0,.857-.212c.136-.04.265-.085.386-.129.062-.023.121-.045.176-.07s.11-.047.163-.072c.1-.047.2-.1.278-.142.04-.023.078-.047.112-.068l.093-.064a1.351,1.351,0,0,0,.123-.093.779.779,0,0,0,.085-.1l.011-.24S87.585,27.813,87.557,27.834Z" transform="translate(179.617 365.028)" fill="#bab8bc"/>
    <path id="Path_5" data-name="Path 5" d="M42.5,26.809c.028.019.068.057.121.089.025.017.055.036.085.057l.108.064a2.829,2.829,0,0,0,.267.136c.049.023.1.047.157.068s.112.047.172.068c.119.045.246.087.38.127.267.081.556.148.848.206a15.055,15.055,0,0,0,1.627.218c.223.019.409.03.541.036l.206.008-.206,0c-.132,0-.318-.006-.543-.017a15.683,15.683,0,0,1-1.64-.161,8.786,8.786,0,0,1-.865-.178c-.136-.036-.267-.074-.392-.115q-.092-.029-.178-.064c-.057-.021-.112-.042-.165-.066-.106-.042-.2-.089-.282-.132-.04-.023-.078-.042-.115-.064s-.068-.042-.1-.059c-.059-.036-.1-.068-.127-.087a1.006,1.006,0,0,1-.089-.093l-.019-.24S42.468,26.788,42.5,26.809Z" transform="translate(211.762 365.824)" fill="#bab8bc"/>
    <path id="Path_6" data-name="Path 6" d="M67.733,15.167s.257-1.775-.231-2.27c-.651-.66-1.169-.655-1.964-1.02-.093-.042-.185-.083-.28-.121-.178-.074-.361-.142-.545-.2a8.935,8.935,0,0,0-1.148-.3,12.734,12.734,0,0,0-2.475-.225c-.274,0-.543,0-.81,0-.174,0-.346,0-.515,0H59.5c-.153,0-.305,0-.456,0l-.216,0c-.028,0-.055,0-.083,0h.028c-.2.006-.395.013-.585.028a11.873,11.873,0,0,1,1.527.2,9.69,9.69,0,0,1,1.148.3c.185.062.365.129.545.2q.14.057.28.121c.8.365,1.313.361,1.964,1.02.488.494.231,2.27.231,2.27s3.131,4.966,3.131,9.106c0,6.149.011,10.882-5.789,12.15a14.02,14.02,0,0,1-1.551.242l-.136.013-.066.006c.216.017.439.032.666.042h-.006l.055,0,.325.013c.04,0,.083,0,.123,0,.153,0,.308.008.467.011a21.6,21.6,0,0,0,2.191-.072l.091-.008.136-.013a13.941,13.941,0,0,0,1.551-.242c5.8-1.268,5.789-6,5.789-12.15C70.864,20.133,67.733,15.167,67.733,15.167Z" transform="translate(199.235 378.107)" fill="#f3f3f3" opacity="0.2"/>
    <ellipse id="Ellipse_2" data-name="Ellipse 2" cx="6.654" cy="1.468" rx="6.654" ry="1.468" transform="translate(254.052 390.315)" fill="#c4c4c4"/>
    <path id="Path_7" data-name="Path 7" d="M48.59,11.57c-3.765,0-6.75,1.561-6.75,2.391s2.985,1.555,6.75,1.555,6.716-.624,6.716-1.453S52.355,11.57,48.59,11.57Z" transform="translate(212.117 377.674)" fill="#c4c4c4"/>
    <path id="Path_8" data-name="Path 8" d="M43,18.322c0,.77,2.915,1.394,6.472,1.394s6.472-.624,6.472-1.394V17.06H43Z" transform="translate(211.203 373.349)" fill="#ccc"/>
    <ellipse id="Ellipse_3" data-name="Ellipse 3" cx="6.455" cy="1.394" rx="6.455" ry="1.394" transform="translate(254.235 389)" fill="#ccc"/>
    <path id="Path_9" data-name="Path 9" d="M53.394,12.64c-3.606,0-5.464.692-5.464.984s1.858.984,5.464.984,5.464-.692,5.464-.984S57,12.64,53.394,12.64Z" transform="translate(207.319 376.831)" fill="#ccc"/>
    <path id="Path_10" data-name="Path 10" d="M65.021,17.064a.235.235,0,1,0,0,.467h3.364a.237.237,0,1,0,0-.471Z" transform="translate(194.059 373.349)" fill="#58595b"/>
    <path id="Path_11" data-name="Path 11" d="M68.385,17.06H65.021a.237.237,0,1,0,0,.471.255.255,0,0,1,.261-.244h2.845a.253.253,0,0,1,.261.24.248.248,0,0,0,.261-.233A.251.251,0,0,0,68.385,17.06Z" transform="translate(194.059 373.349)" fill="#939598"/>
    <path id="Path_12" data-name="Path 12" d="M53.394,12.64c-3.6,0-5.464.692-5.464.984a.172.172,0,0,0,.076.117c.38-.329,2.2-.868,5.388-.868s5.008.539,5.388.868a.172.172,0,0,0,.076-.117C58.858,13.329,57,12.64,53.394,12.64Z" transform="translate(207.319 376.831)" fill="#ccc"/>
    <path id="Path_13" data-name="Path 13" d="M85.2,20.789l-.006-1.273s2.974-.263,3.805-.957v1.275S88.365,20.575,85.2,20.789Z" transform="translate(177.962 372.167)" fill="#414042" opacity="0.2"/>
    <path id="Path_14" data-name="Path 14" d="M62.513,65.238l-1.281-.8a1.967,1.967,0,0,1-1.79,1.109c-1.455,0-2.1-1.222-2.1-2.645s.651-2.645,2.066-2.645a1.921,1.921,0,0,1,1.78,1.15l1.292-.844a3.384,3.384,0,0,0-2.439-1.625V57.86H58.536v1.09a3.709,3.709,0,0,0-3.006,3.969,3.652,3.652,0,0,0,3.006,3.928v1.1h1.5V66.867A3.431,3.431,0,0,0,62.513,65.238Z" transform="translate(201.331 341.203)" fill="#fff"/>
    <path id="Path_15" data-name="Path 15" d="M37.489,37.2a14.761,14.761,0,0,0-.628,1.924,11.559,11.559,0,0,0-.278,4.359c.028.242.057.486.089.728.021.165.159.575.1.723.664-1.672,1.156-3.407,1.79-5.089a13.2,13.2,0,0,1,2.357-4.4,6.269,6.269,0,0,1-1.805-.257.531.531,0,0,0-.322.049.788.788,0,0,0-.276.233A6.469,6.469,0,0,0,37.489,37.2Z" transform="translate(216.327 359.072)" fill="#fff" opacity="0.36"/>
  </g>
</svg>
