<svg xmlns="http://www.w3.org/2000/svg" width="14.482" height="20.25" viewBox="0 0 14.482 20.25">
  <g id="active_logo" data-name="active logo" transform="translate(-105.939 -72.4)">
    <path id="Path_2044" data-name="Path 2044" d="M118.309,79.693l.037-.659.128-.037a1.273,1.273,0,0,0,0-.97s-.732-.677-10.015-.311c0,0-.641,0-.751.311s-.146,1.062.146,1.135l.037.531c0,.037-.275.275-.293.33a5.168,5.168,0,0,0-.659,1.208,17.486,17.486,0,0,0-.989,6.591,39.155,39.155,0,0,0,.146,4.394,13.942,13.942,0,0,0,.348,1.977c.11.4.22,1.208.623,1.446S109.411,96.9,113.9,96.9s5.657-1.391,5.657-1.391.384-1.5.476-2.215S121.549,84.124,118.309,79.693Z" transform="translate(0 -4.254)" fill="#dcdcdc" opacity="0.8"/>
    <path id="Path_2045" data-name="Path 2045" d="M119.655,74.558l-.055-1.391a24.024,24.024,0,0,1,9.429,0v1.611s-1.153.732-4.852.641S119.765,74.686,119.655,74.558Z" transform="translate(-11.16 -0.254)" fill="#ccc"/>
    <ellipse id="Ellipse_1" data-name="Ellipse 1" cx="4.724" cy="0.476" rx="4.724" ry="0.476" transform="translate(108.44 72.4)" fill="#ccc"/>
    <path id="Path_2046" data-name="Path 2046" d="M130.133,113.541l-.11.238a2.362,2.362,0,0,1-2.16,1.428,2.483,2.483,0,0,1-2.417-2.6,2.436,2.436,0,0,1,2.417-2.508,2.384,2.384,0,0,1,2.069,1.19l.11.183,1.227-.732-.11-.183a3.7,3.7,0,0,0-2.673-1.739V107.7h-1.446v1.153A3.759,3.759,0,0,0,124,112.607a3.847,3.847,0,0,0,3.039,3.845v1.153h1.446v-1.117a3.788,3.788,0,0,0,2.728-1.9l.092-.146Z" transform="translate(-14.753 -28.837)" fill="#fff"/>
    <path id="Path_2047" data-name="Path 2047" d="M111.423,171.814a31.289,31.289,0,0,1,12.12.018c.037,0,.055.037.055.073,0,.018-.018.037-.037.055-.806.458-4.87,2.362-12.157-.018-.037-.018-.055-.037-.037-.073A.049.049,0,0,1,111.423,171.814Z" transform="translate(-4.429 -80.757)" fill="#dcdcdc"/>
    <rect id="Rectangle_378" data-name="Rectangle 378" width="4.998" height="0.183" transform="translate(110.766 72.784)" fill="#f2f2f2"/>
  </g>
</svg>
