<svg xmlns="http://www.w3.org/2000/svg" width="30.842" height="41.171" viewBox="0 0 30.842 41.171">
  <g id="Group_8" data-name="Group 8" transform="translate(-251 -389)">
    <path id="Path_1" data-name="Path 1" d="M58.742,33.117c0,9.69.017,17.147-9.122,19.146a22.093,22.093,0,0,1-2.443.381l-.214.02c-.047,0-.1.01-.144.013-1.056.09-2.2.13-3.453.114C27.7,52.564,27.74,44.649,27.94,33.12a24.979,24.979,0,0,1,4.479-14.35c.271-.435-.274-2.935,0-3.323,2.567-3.613,6.4-3.206,10.924-3.206a20.066,20.066,0,0,1,3.9.354,15.268,15.268,0,0,1,1.808.475c.291.1.575.2.859.321q.221.09.441.191c1.257.575,2.069.568,3.1,1.608.769.779.364,3.577.364,3.577S58.742,26.589,58.742,33.117Z" transform="translate(223.1 377.376)" fill="#dcdcdc"/>
    <path id="Path_2" data-name="Path 2" d="M51.279,109.8c-6.4,0-11.6,1.233-11.6,2.751s5.191,4.292,11.6,4.292,11.6-2.771,11.6-4.292S57.683,109.8,51.279,109.8Z" transform="translate(215.257 312.419)" fill="#dcdcdc" opacity="0.6"/>
    <path id="Path_3" data-name="Path 3" d="M90.129,25.6c-.043.033-.1.094-.184.147-.04.03-.084.06-.13.1s-.107.067-.164.107c-.12.074-.257.154-.411.231-.077.04-.157.08-.244.117s-.174.08-.267.117c-.184.077-.384.15-.592.221-.414.14-.866.267-1.324.374a23.347,23.347,0,0,1-2.55.441c-.351.043-.645.07-.849.087l-.324.027.324-.017c.207-.01.5-.03.852-.06a24.363,24.363,0,0,0,2.574-.354,13.289,13.289,0,0,0,1.35-.334c.214-.064.418-.134.608-.2.1-.037.191-.07.277-.11s.174-.074.257-.114c.164-.074.311-.154.438-.224.064-.037.124-.074.177-.107l.147-.1a2.128,2.128,0,0,0,.194-.147,1.227,1.227,0,0,0,.134-.154l.017-.378S90.173,25.561,90.129,25.6Z" transform="translate(186.358 368.7)" fill="#bab8bc"/>
    <path id="Path_4" data-name="Path 4" d="M90.129,27.958c-.043.033-.1.094-.184.147-.04.03-.084.06-.13.1s-.107.067-.164.107c-.12.074-.257.154-.411.231-.077.04-.157.08-.244.117s-.174.08-.267.117c-.184.077-.384.15-.592.221-.414.14-.866.267-1.324.374a23.349,23.349,0,0,1-2.55.441c-.351.043-.645.07-.849.087l-.324.027.324-.017c.207-.01.5-.03.852-.06a24.361,24.361,0,0,0,2.574-.354,13.285,13.285,0,0,0,1.35-.334c.214-.064.418-.134.608-.2.1-.037.191-.07.277-.11s.174-.074.257-.114c.164-.074.311-.154.438-.224.064-.037.124-.074.177-.107l.147-.1a2.13,2.13,0,0,0,.194-.147A1.227,1.227,0,0,0,90.424,28l.017-.378C90.44,27.627,90.173,27.924,90.129,27.958Z" transform="translate(186.358 367.129)" fill="#bab8bc"/>
    <path id="Path_5" data-name="Path 5" d="M42.614,26.924c.043.03.107.09.191.14.04.027.087.057.134.09s.107.064.17.1a4.458,4.458,0,0,0,.421.214c.077.037.16.074.247.107s.177.074.271.107c.187.07.388.137.6.2.421.127.876.234,1.337.324a23.725,23.725,0,0,0,2.564.344c.351.03.645.047.852.057s.324.013.324.013-.117,0-.324,0-.5-.01-.856-.027a24.714,24.714,0,0,1-2.584-.254,13.843,13.843,0,0,1-1.364-.281c-.214-.057-.421-.117-.618-.181q-.145-.045-.281-.1c-.09-.033-.177-.067-.261-.1-.167-.067-.314-.14-.445-.207-.064-.037-.124-.067-.18-.1s-.107-.067-.15-.094c-.094-.057-.154-.107-.2-.137a1.586,1.586,0,0,1-.14-.147l-.03-.378S42.571,26.891,42.614,26.924Z" transform="translate(213.52 367.802)" fill="#bab8bc"/>
    <path id="Path_6" data-name="Path 6" d="M73.228,17.555s.4-2.8-.364-3.577c-1.026-1.04-1.842-1.033-3.1-1.608-.147-.067-.291-.13-.441-.191-.281-.117-.568-.224-.859-.321a14.079,14.079,0,0,0-1.808-.475,20.066,20.066,0,0,0-3.9-.354c-.431,0-.856,0-1.277-.007-.274,0-.545,0-.812,0h-.411c-.241,0-.481,0-.719.007-.114,0-.231,0-.341.007-.043,0-.087,0-.13,0h.043c-.311.01-.622.02-.923.043a18.71,18.71,0,0,1,2.407.308,15.269,15.269,0,0,1,1.808.475c.291.1.575.2.859.321q.221.09.441.191c1.257.575,2.069.568,3.1,1.608.769.779.364,3.577.364,3.577S72.1,25.383,72.1,31.908c0,9.69.017,17.147-9.122,19.146a22.091,22.091,0,0,1-2.443.381l-.214.02-.1.01c.341.027.692.05,1.05.067h-.01c.027,0,.057,0,.087,0l.511.02c.064,0,.13.007.194.007.241.007.485.013.735.017a34.043,34.043,0,0,0,3.453-.114c.05,0,.1-.01.144-.013l.214-.02a21.969,21.969,0,0,0,2.443-.381c9.139-2,9.122-9.453,9.122-19.146C78.162,25.38,73.228,17.555,73.228,17.555Z" transform="translate(202.935 378.181)" fill="#f3f3f3" opacity="0.2"/>
    <ellipse id="Ellipse_2" data-name="Ellipse 2" cx="10.486" cy="2.313" rx="10.486" ry="2.313" transform="translate(255.81 391.072)" fill="#c4c4c4"/>
    <path id="Path_7" data-name="Path 7" d="M52.476,11.57c-5.933,0-10.636,2.46-10.636,3.767s4.7,2.45,10.636,2.45S63.059,16.8,63.059,15.5,58.409,11.57,52.476,11.57Z" transform="translate(213.819 377.814)" fill="#c4c4c4"/>
    <path id="Path_8" data-name="Path 8" d="M43,19.049c0,1.213,4.593,2.2,10.2,2.2s10.2-.983,10.2-2.2V17.06H43Z" transform="translate(213.047 374.159)" fill="#ccc"/>
    <ellipse id="Ellipse_3" data-name="Ellipse 3" cx="10.171" cy="2.196" rx="10.171" ry="2.196" transform="translate(256.097 389)" fill="#ccc"/>
    <path id="Path_9" data-name="Path 9" d="M56.54,12.64c-5.682,0-8.61,1.09-8.61,1.551s2.928,1.551,8.61,1.551,8.61-1.09,8.61-1.551S62.223,12.64,56.54,12.64Z" transform="translate(209.765 377.102)" fill="#ccc"/>
    <path id="Path_10" data-name="Path 10" d="M65.171,17.067a.37.37,0,1,0,0,.735h5.3a.373.373,0,1,0,0-.742Z" transform="translate(198.561 374.159)" fill="#58595b"/>
    <path id="Path_11" data-name="Path 11" d="M70.472,17.06h-5.3a.373.373,0,1,0,0,.742.4.4,0,0,1,.411-.384h4.482a.4.4,0,0,1,.411.378.39.39,0,0,0,.411-.368A.4.4,0,0,0,70.472,17.06Z" transform="translate(198.561 374.159)" fill="#939598"/>
    <path id="Path_12" data-name="Path 12" d="M56.54,12.64c-5.679,0-8.61,1.09-8.61,1.551a.272.272,0,0,0,.12.184c.6-.518,3.47-1.367,8.49-1.367s7.892.849,8.49,1.367a.272.272,0,0,0,.12-.184C65.151,13.726,62.223,12.64,56.54,12.64Z" transform="translate(209.765 377.102)" fill="#ccc"/>
    <path id="Path_13" data-name="Path 13" d="M85.2,22.073l-.01-2.006s4.686-.414,6-1.508v2.009S90.194,21.735,85.2,22.073Z" transform="translate(184.96 373.161)" fill="#414042" opacity="0.2"/>
    <path id="Path_14" data-name="Path 14" d="M66.534,69.486l-2.019-1.267a3.1,3.1,0,0,1-2.821,1.748c-2.293,0-3.3-1.925-3.3-4.168,0-2.26,1.026-4.168,3.256-4.168a3.027,3.027,0,0,1,2.8,1.812l2.036-1.33a5.332,5.332,0,0,0-3.844-2.56V57.86H60.266v1.718c-3.055.545-4.736,3.068-4.736,6.254,0,3.212,1.685,5.659,4.736,6.19v1.735h2.37v-1.7A5.407,5.407,0,0,0,66.534,69.486Z" transform="translate(204.705 346.997)" fill="#fff"/>
    <path id="Path_15" data-name="Path 15" d="M38.062,38.355a23.259,23.259,0,0,0-.989,3.032,18.214,18.214,0,0,0-.438,6.869c.043.381.09.765.14,1.146.033.261.251.906.157,1.14,1.046-2.634,1.822-5.368,2.821-8.019A20.8,20.8,0,0,1,43.467,35.6a9.879,9.879,0,0,1-2.845-.4.837.837,0,0,0-.508.077,1.242,1.242,0,0,0-.435.368A10.193,10.193,0,0,0,38.062,38.355Z" transform="translate(217.377 362.096)" fill="#fff" opacity="0.36"/>
  </g>
</svg>
