<svg id="emoji_events-24px" xmlns="http://www.w3.org/2000/svg" width="36" height="36" viewBox="0 0 36 36">
  <g id="Group_35" data-name="Group 35">
    <rect id="Rectangle_394" data-name="Rectangle 394" width="36" height="36" fill="none"/>
  </g>
  <g id="Group_36" data-name="Group 36" transform="translate(3 3)">
    <path id="Path_2054" data-name="Path 2054" d="M29.667,6.333H26.333V3H9.667V6.333H6.333A3.343,3.343,0,0,0,3,9.667v1.667a8.319,8.319,0,0,0,7.317,8.233A8.349,8.349,0,0,0,16.333,24.5v5.167H9.667V33H26.333V29.667H19.667V24.5a8.349,8.349,0,0,0,6.017-4.933A8.319,8.319,0,0,0,33,11.333V9.667A3.343,3.343,0,0,0,29.667,6.333Zm-20,9.7a5.017,5.017,0,0,1-3.333-4.7V9.667H9.667Zm20-4.7a5.017,5.017,0,0,1-3.333,4.7V9.667h3.333Z" transform="translate(-3 -3)" fill="#d1d1d1"/>
  </g>
</svg>
