<svg xmlns="http://www.w3.org/2000/svg" width="35" height="35" viewBox="0 0 35 35">
  <g id="noun_activity_118640" transform="translate(-4.999 -5)">
    <path id="Path_2976" data-name="Path 2976" d="M22.5,5a17.5,17.5,0,0,0,0,35h.117A17.527,17.527,0,0,0,40,22.383,17.552,17.552,0,0,0,22.5,5ZM34.009,24.328H30.432a1.138,1.138,0,0,1-1.05-.739l-1.828-4.978L23.937,30.083a1.074,1.074,0,0,1-1.011.778h-.078a1.114,1.114,0,0,1-1.011-.661l-4.161-9.333-1.983,2.956a1.094,1.094,0,0,1-.933.506H10.832a1.128,1.128,0,0,1,0-2.256h3.305L16.9,17.911a1.123,1.123,0,0,1,1.05-.506,1.067,1.067,0,0,1,.933.661l3.772,8.517,3.772-11.861a1.121,1.121,0,0,1,1.05-.778,1.1,1.1,0,0,1,1.089.739l2.644,7.35h2.8a1.129,1.129,0,0,1,1.128,1.128A1.162,1.162,0,0,1,34.009,24.328Z" transform="translate(0 0)" fill="#d1d1d1"/>
  </g>
</svg>
