<svg xmlns="http://www.w3.org/2000/svg" width="33.464" height="44.671" viewBox="0 0 33.464 44.671">
  <g id="Group_1113" data-name="Group 1113" transform="translate(-251 -389)">
    <path id="Path_1" data-name="Path 1" d="M61.364,34.893c0,10.514.018,18.605-9.9,20.774a23.969,23.969,0,0,1-2.651.413l-.232.022c-.051,0-.105.011-.156.015-1.146.1-2.39.141-3.746.123-17-.247-16.955-8.835-16.737-21.343a27.1,27.1,0,0,1,4.86-15.57c.294-.471-.3-3.184,0-3.6,2.785-3.921,6.949-3.478,11.852-3.478a21.771,21.771,0,0,1,4.232.384,16.567,16.567,0,0,1,1.962.515c.316.105.624.221.932.348q.239.1.479.207c1.364.624,2.245.617,3.358,1.744.834.845.4,3.881.4,3.881S61.364,27.81,61.364,34.893Z" transform="translate(223.1 377.427)" fill="#dcdcdc"/>
    <path id="Path_2" data-name="Path 2" d="M52.265,109.8c-6.949,0-12.585,1.338-12.585,2.985s5.632,4.657,12.585,4.657,12.585-3.007,12.585-4.657S59.214,109.8,52.265,109.8Z" transform="translate(215.592 315.243)" fill="#dcdcdc" opacity="0.6"/>
    <path id="Path_3" data-name="Path 3" d="M90.728,25.626c-.047.036-.112.1-.2.16-.044.033-.091.065-.141.105s-.116.073-.178.116c-.131.08-.279.167-.446.25-.083.044-.17.087-.265.127s-.189.087-.29.127c-.2.083-.417.163-.642.239-.45.152-.939.29-1.436.406a25.331,25.331,0,0,1-2.767.479c-.381.047-.7.076-.921.094l-.352.029.352-.018c.225-.011.544-.033.925-.065a26.434,26.434,0,0,0,2.793-.384,14.418,14.418,0,0,0,1.465-.363c.232-.069.453-.145.66-.221.105-.04.207-.076.3-.12s.189-.08.279-.123c.178-.08.337-.167.475-.243.069-.04.134-.08.192-.116l.16-.109a2.309,2.309,0,0,0,.21-.16,1.331,1.331,0,0,0,.145-.167l.018-.41S90.775,25.586,90.728,25.626Z" transform="translate(187.926 369.122)" fill="#bab8bc"/>
    <path id="Path_4" data-name="Path 4" d="M90.728,27.986c-.047.036-.112.1-.2.16-.044.033-.091.065-.141.105s-.116.073-.178.116c-.131.08-.279.167-.446.25-.083.044-.17.087-.265.127s-.189.087-.29.127c-.2.083-.417.163-.642.239-.45.152-.939.29-1.436.406A25.334,25.334,0,0,1,84.363,30c-.381.047-.7.076-.921.094l-.352.029.352-.018c.225-.011.544-.033.925-.065a26.432,26.432,0,0,0,2.793-.384,14.412,14.412,0,0,0,1.465-.363c.232-.069.453-.145.66-.221.105-.04.207-.076.3-.12s.189-.08.279-.123c.178-.08.337-.167.475-.243.069-.04.134-.08.192-.116l.16-.109a2.309,2.309,0,0,0,.21-.16,1.331,1.331,0,0,0,.145-.167l.018-.41C91.065,27.627,90.775,27.95,90.728,27.986Z" transform="translate(187.926 367.618)" fill="#bab8bc"/>
    <path id="Path_5" data-name="Path 5" d="M42.642,26.951c.047.033.116.1.207.152.044.029.094.062.145.1s.116.069.185.109a4.836,4.836,0,0,0,.457.232c.083.04.174.08.268.116s.192.08.294.116c.2.076.421.149.649.218.457.138.95.254,1.451.352a25.742,25.742,0,0,0,2.782.374c.381.033.7.051.925.062s.352.015.352.015-.127,0-.352,0-.544-.011-.928-.029a26.814,26.814,0,0,1-2.8-.276,15.024,15.024,0,0,1-1.48-.3c-.232-.062-.457-.127-.671-.2q-.158-.049-.3-.109c-.1-.036-.192-.073-.283-.112-.181-.073-.341-.152-.482-.225-.069-.04-.134-.073-.2-.109s-.116-.073-.163-.1c-.1-.062-.167-.116-.218-.149a1.721,1.721,0,0,1-.152-.16l-.033-.41S42.595,26.915,42.642,26.951Z" transform="translate(213.929 368.262)" fill="#bab8bc"/>
    <path id="Path_6" data-name="Path 6" d="M74.507,18.11s.439-3.036-.4-3.881c-1.113-1.128-2-1.121-3.358-1.744-.16-.073-.316-.141-.479-.207-.3-.127-.617-.243-.932-.348a15.277,15.277,0,0,0-1.962-.515,21.772,21.772,0,0,0-4.232-.384c-.468,0-.928,0-1.385-.007-.3,0-.591,0-.881,0h-.446c-.261,0-.522,0-.78.007-.123,0-.25,0-.37.007-.047,0-.094,0-.141,0h.047c-.337.011-.675.022-1,.047a20.3,20.3,0,0,1,2.611.334,16.567,16.567,0,0,1,1.962.515c.316.105.624.221.932.348q.239.1.479.207c1.364.624,2.245.617,3.358,1.744.834.845.4,3.881.4,3.881s5.353,8.49,5.353,15.57c0,10.514.018,18.605-9.9,20.774a23.972,23.972,0,0,1-2.651.413l-.232.022-.112.011c.37.029.751.054,1.139.073h-.011c.029,0,.062,0,.094,0l.555.022c.069,0,.141.007.21.007.261.007.526.015.8.018A36.939,36.939,0,0,0,66.92,54.9c.054,0,.105-.011.156-.014l.232-.022a23.835,23.835,0,0,0,2.651-.413c9.916-2.169,9.9-10.256,9.9-20.774C79.86,26.6,74.507,18.11,74.507,18.11Z" transform="translate(203.795 378.198)" fill="#f3f3f3" opacity="0.2"/>
    <ellipse id="Ellipse_2" data-name="Ellipse 2" cx="11.377" cy="2.51" rx="11.377" ry="2.51" transform="translate(256.219 391.249)" fill="#c4c4c4"/>
    <path id="Path_7" data-name="Path 7" d="M53.38,11.57c-6.437,0-11.54,2.669-11.54,4.087s5.1,2.658,11.54,2.658,11.482-1.066,11.482-2.484S59.818,11.57,53.38,11.57Z" transform="translate(214.216 377.847)" fill="#c4c4c4"/>
    <path id="Path_8" data-name="Path 8" d="M43,19.218c0,1.317,4.983,2.383,11.065,2.383S65.13,20.534,65.13,19.218V17.06H43Z" transform="translate(213.476 374.348)" fill="#ccc"/>
    <ellipse id="Ellipse_3" data-name="Ellipse 3" cx="11.036" cy="2.383" rx="11.036" ry="2.383" transform="translate(256.531 389)" fill="#ccc"/>
    <path id="Path_9" data-name="Path 9" d="M57.273,12.64c-6.165,0-9.343,1.182-9.343,1.683s3.177,1.683,9.343,1.683,9.343-1.182,9.343-1.683S63.438,12.64,57.273,12.64Z" transform="translate(210.334 377.165)" fill="#ccc"/>
    <path id="Path_10" data-name="Path 10" d="M65.206,17.067a.4.4,0,1,0,0,.8h5.752a.4.4,0,1,0,0-.805Z" transform="translate(199.608 374.348)" fill="#58595b"/>
    <path id="Path_11" data-name="Path 11" d="M70.958,17.06H65.206a.4.4,0,1,0,0,.805.436.436,0,0,1,.446-.417h4.863a.432.432,0,0,1,.446.41.424.424,0,0,0,.446-.4A.429.429,0,0,0,70.958,17.06Z" transform="translate(199.608 374.348)" fill="#939598"/>
    <path id="Path_12" data-name="Path 12" d="M57.273,12.64c-6.162,0-9.343,1.182-9.343,1.683a.3.3,0,0,0,.131.2c.649-.562,3.765-1.483,9.212-1.483s8.563.921,9.212,1.483a.3.3,0,0,0,.131-.2C66.615,13.819,63.438,12.64,57.273,12.64Z" transform="translate(210.334 377.165)" fill="#ccc"/>
    <path id="Path_13" data-name="Path 13" d="M85.2,22.372,85.19,20.2s5.085-.45,6.506-1.636v2.18S90.619,22.005,85.2,22.372Z" transform="translate(186.588 373.392)" fill="#414042" opacity="0.2"/>
    <path id="Path_14" data-name="Path 14" d="M67.469,70.474,65.279,69.1A3.364,3.364,0,0,1,62.218,71c-2.488,0-3.583-2.089-3.583-4.523,0-2.452,1.113-4.523,3.532-4.523a3.284,3.284,0,0,1,3.043,1.966l2.209-1.443A5.785,5.785,0,0,0,63.248,59.7V57.86H60.669v1.864c-3.315.591-5.139,3.329-5.139,6.786,0,3.485,1.828,6.14,5.139,6.717v1.882H63.24v-1.85A5.867,5.867,0,0,0,67.469,70.474Z" transform="translate(205.491 348.345)" fill="#fff"/>
    <path id="Path_15" data-name="Path 15" d="M38.195,38.625a25.237,25.237,0,0,0-1.074,3.289,19.762,19.762,0,0,0-.475,7.453c.047.413.1.831.152,1.244.036.283.272.983.17,1.237,1.135-2.858,1.977-5.825,3.061-8.7a22.567,22.567,0,0,1,4.029-7.515,10.719,10.719,0,0,1-3.086-.439.908.908,0,0,0-.551.083,1.348,1.348,0,0,0-.471.4A11.06,11.06,0,0,0,38.195,38.625Z" transform="translate(217.621 362.8)" fill="#fff" opacity="0.36"/>
  </g>
</svg>
