<svg xmlns="http://www.w3.org/2000/svg" width="45.531" height="31.303" viewBox="0 0 45.531 31.303">
  <g id="credit-card" transform="translate(0 -80)">
    <path id="Path_8757" data-name="Path 8757" d="M45.531,87.381v-2.4A4.98,4.98,0,0,0,40.551,80H4.98A4.98,4.98,0,0,0,0,84.98v2.4a.445.445,0,0,0,.445.445H45.086A.445.445,0,0,0,45.531,87.381Z" transform="translate(0 0)" fill="#d1d1d0"/>
    <path id="Path_8758" data-name="Path 8758" d="M0,200.445v15.207a4.98,4.98,0,0,0,4.98,4.98H40.551a4.98,4.98,0,0,0,4.98-4.98V200.445a.445.445,0,0,0-.445-.445H.445A.445.445,0,0,0,0,200.445Zm11.383,11.65a1.423,1.423,0,0,1-1.423,1.423H8.537a1.423,1.423,0,0,1-1.423-1.423v-1.423a1.423,1.423,0,0,1,1.423-1.423H9.96a1.423,1.423,0,0,1,1.423,1.423Z" transform="translate(0 -109.329)" fill="#d1d1d0"/>
  </g>
</svg>
