<svg id="round-notifications-24px" xmlns="http://www.w3.org/2000/svg" width="32" height="32" viewBox="0 0 32 32">
  <path id="Path_2948" data-name="Path 2948" d="M0,0H32V32H0Z" fill="none"/>
  <path id="Path_2949" data-name="Path 2949" d="M15.152,29.135A2.791,2.791,0,0,0,17.982,26.4H12.321A2.782,2.782,0,0,0,15.152,29.135Zm8.492-8.2V14.11c0-4.193-2.321-7.7-6.369-8.632V4.549a2.124,2.124,0,0,0-4.246,0v.929C8.966,6.406,6.659,9.9,6.659,14.11v6.829L4.833,22.7a1.36,1.36,0,0,0,.991,2.336H24.465a1.365,1.365,0,0,0,1-2.336Z" transform="translate(0.849 0.481)" fill="#d1d1d1"/>
</svg>
