<svg id="round-help-24px" xmlns="http://www.w3.org/2000/svg" width="32" height="32" viewBox="0 0 32 32">
  <path id="Path_2955" data-name="Path 2955" d="M0,0H32V32H0Z" fill="none"/>
  <path id="Path_2956" data-name="Path 2956" d="M15.417,2A13.417,13.417,0,1,0,28.833,15.417,13.422,13.422,0,0,0,15.417,2Zm1.342,22.808H14.075V22.125h2.683Zm2.777-10.4-1.208,1.234a4.7,4.7,0,0,0-1.4,2.267,6.155,6.155,0,0,0-.174,1.53H14.075v-.671a5.428,5.428,0,0,1,.3-1.758,5.363,5.363,0,0,1,1.275-2.039l1.664-1.691a2.634,2.634,0,0,0,.738-2.415,2.671,2.671,0,0,0-1.865-2.053,2.705,2.705,0,0,0-3.314,1.7,1.185,1.185,0,0,1-1.1.872h-.4a1.162,1.162,0,0,1-1.1-1.5,5.377,5.377,0,0,1,4.334-3.8A5.458,5.458,0,0,1,19.79,8.507,4.437,4.437,0,0,1,19.536,14.41Z" transform="translate(0.583 0.583)" fill="#d1d1d1"/>
</svg>
