<svg id="round-home-24px" xmlns="http://www.w3.org/2000/svg" width="32" height="32" viewBox="0 0 32 32">
  <path id="Path_2961" data-name="Path 2961" d="M0,0H32V32H0Z" fill="none"/>
  <path id="Path_2962" data-name="Path 2962" d="M13.129,26.52v-7.4h5.739v7.4A1.462,1.462,0,0,0,20.3,28h4.3a1.462,1.462,0,0,0,1.435-1.48V16.157h2.439a.738.738,0,0,0,.473-1.288L16.96,3.722a1.413,1.413,0,0,0-1.923,0L3.043,14.869a.741.741,0,0,0,.473,1.288H5.956V26.52A1.462,1.462,0,0,0,7.39,28h4.3A1.462,1.462,0,0,0,13.129,26.52Z" transform="translate(0 0)" fill="#d1d1d1"/>
</svg>
