<svg id="round-settings-24px" xmlns="http://www.w3.org/2000/svg" width="32" height="32" viewBox="0 0 32 32">
  <path id="Path_2957" data-name="Path 2957" d="M0,0H32V32H0Z" fill="none"/>
  <path id="Path_2958" data-name="Path 2958" d="M25.15,16.64a10.39,10.39,0,0,0,.093-1.307,10.391,10.391,0,0,0-.093-1.307l2.813-2.2a.673.673,0,0,0,.16-.853L25.456,6.36a.67.67,0,0,0-.813-.293L21.323,7.4A9.741,9.741,0,0,0,19.07,6.093L18.563,2.56A.65.65,0,0,0,17.91,2H12.576a.65.65,0,0,0-.653.56l-.507,3.533A10.244,10.244,0,0,0,9.163,7.4L5.843,6.067a.65.65,0,0,0-.813.293L2.363,10.973a.657.657,0,0,0,.16.853l2.813,2.2a10.574,10.574,0,0,0-.093,1.307,10.574,10.574,0,0,0,.093,1.307l-2.813,2.2a.673.673,0,0,0-.16.853L5.03,24.307a.67.67,0,0,0,.813.293l3.32-1.333a9.741,9.741,0,0,0,2.253,1.307l.507,3.533a.65.65,0,0,0,.653.56H17.91a.65.65,0,0,0,.653-.56l.507-3.533a10.244,10.244,0,0,0,2.253-1.307l3.32,1.333a.65.65,0,0,0,.813-.293l2.667-4.613a.673.673,0,0,0-.16-.853ZM15.243,20a4.667,4.667,0,1,1,4.667-4.667A4.672,4.672,0,0,1,15.243,20Z" transform="translate(0.757 0.667)" fill="#d1d1d1"/>
</svg>
